<svg id="Layer_1" data-name="Layer 1" xmlns="http://www.w3.org/2000/svg" viewBox="0 0 30 42.57"><defs><style>.cls-1{fill:#fff;}.cls-2{fill:none;stroke:#fff;stroke-miterlimit:10;}.cls-3{opacity:0.3;}</style></defs><title>360_view</title><path class="cls-1" d="M15,25.2c-8.4,0-15,1-15,2.1,0,1.3,5.9,2.5,13.6,2.6v1.6l3.9-2.3L13.6,27v1.4c-6.4-.1-11.4-.5-11.4-1.2,0-1,5.7-1.8,12.8-1.8s12.8.8,12.8,1.8c0,.6-3.9,1-9.1,1.1a.68.68,0,0,0-.7.7v.3a.68.68,0,0,0,.7.7c6.6-.3,11.3-1.4,11.3-2.6S23.4,25.2,15,25.2Z" transform="translate(0 -0.43)"/><path class="cls-2" d="M23.7,9.4,11.3,1a.64.64,0,0,0-.6,0,.55.55,0,0,0-.3.5v17a.55.55,0,0,0,.3.5c.1,0,.2.1.3.1a.37.37,0,0,0,.3-.1l12.4-8.5a.86.86,0,0,0,.3-.6A.55.55,0,0,0,23.7,9.4Z" transform="translate(0 -0.43)"/><g class="cls-3"><path class="cls-1" d="M5.07,41.73a3.34,3.34,0,0,0,1.63.46c1.28,0,1.68-.82,1.66-1.43,0-1-.94-1.47-1.9-1.47H5.91v-.75h.56c.72,0,1.64-.37,1.64-1.25,0-.59-.37-1.11-1.29-1.11a2.71,2.71,0,0,0-1.47.49L5.08,36A3.5,3.5,0,0,1,7,35.39c1.45,0,2.11.86,2.11,1.76a1.83,1.83,0,0,1-1.36,1.73v0A1.92,1.92,0,0,1,9.4,40.79C9.4,42,8.48,43,6.71,43a3.74,3.74,0,0,1-1.91-.5Z" transform="translate(0 -0.43)"/><path class="cls-1" d="M15.42,36.22a3.56,3.56,0,0,0-.75,0,3,3,0,0,0-2.56,2.62h0a2.24,2.24,0,0,1,4,1.53A2.46,2.46,0,0,1,13.7,43c-1.57,0-2.6-1.22-2.6-3.14a4.63,4.63,0,0,1,1.25-3.32,4,4,0,0,1,2.36-1.09,4.81,4.81,0,0,1,.72-.06Zm-.28,4.25a1.5,1.5,0,0,0-1.52-1.69,1.64,1.64,0,0,0-1.43.91.84.84,0,0,0-.11.44c0,1.21.58,2.11,1.62,2.11C14.56,42.23,15.13,41.52,15.13,40.46Z" transform="translate(0 -0.43)"/><path class="cls-1" d="M22.49,39.12c0,2.5-.93,3.88-2.56,3.88-1.44,0-2.41-1.35-2.44-3.78s1.07-3.83,2.56-3.83S22.49,36.77,22.49,39.12Zm-4,.11c0,1.91.59,3,1.49,3s1.51-1.19,1.51-3.07-.46-3-1.49-3C19.12,36.16,18.49,37.22,18.49,39.23Z" transform="translate(0 -0.43)"/><path class="cls-1" d="M29.76,36.59a1.5,1.5,0,0,1-1.52,1.52,1.44,1.44,0,0,1-1.48-1.46,1.49,1.49,0,0,1,1.51-1.53A1.45,1.45,0,0,1,29.76,36.59Zm-2.39.06a.9.9,0,0,0,.88.93.92.92,0,0,0,.89-1,.89.89,0,0,0-.89-1A.92.92,0,0,0,27.37,36.65Z" transform="translate(0 -0.43)"/></g></svg>