<svg id="Layer_1" data-name="Layer 1" xmlns="http://www.w3.org/2000/svg" viewBox="0 0 25.7 20"><defs><style>.cls-1{fill:#fff;}</style></defs><title>callback</title><path class="cls-1" d="M23,9.9A10,10,0,0,0,13,0,9.84,9.84,0,0,0,7,2l-.6.5.9,1.2.6-.4A8.67,8.67,0,0,1,13,1.6a8.49,8.49,0,0,1,8.5,8.5v.1L19.7,8.4l-1.1,1L22,12.9l3.8-3.4-1-1.1Z" transform="translate(-0.1)"/><path class="cls-1" d="M3,10.2A10.06,10.06,0,0,0,13,20a10.36,10.36,0,0,0,5.9-1.9l.6-.4-.9-1.2-.6.4a8.28,8.28,0,0,1-5,1.6A8.49,8.49,0,0,1,4.5,10l1.8,1.8,1.1-1L3.9,7.4.1,10.8l1,1.1Z" transform="translate(-0.1)"/></svg>