<svg id="Layer_1" data-name="Layer 1" xmlns="http://www.w3.org/2000/svg" viewBox="0 0 24 18.7"><defs><style>.cls-1{fill:#fff;}</style></defs><title>callback_footer</title><path class="cls-1" d="M21.4,9.4A9.33,9.33,0,0,0,12.1.2,9.44,9.44,0,0,0,6.4,2l-.5.5.8,1.1.6-.4a8.37,8.37,0,0,1,4.8-1.6A7.85,7.85,0,0,1,20,9.5v.1L18.3,8l-1,.9,3.2,3.3L24,9l-.9-1Z" transform="translate(0 -0.2)"/><path class="cls-1" d="M2.7,9.7A9.46,9.46,0,0,0,12,18.9a9.76,9.76,0,0,0,5.5-1.8l.6-.4-.8-1.1-.6.4A8,8,0,0,1,12,17.5,7.85,7.85,0,0,1,4.1,9.6l1.7,1.7,1-.9L3.5,7.1,0,10.2l.9,1Z" transform="translate(0 -0.2)"/></svg>