<svg id="Layer_1" data-name="Layer 1" xmlns="http://www.w3.org/2000/svg" viewBox="0 0 79.9 80"><defs><style>.cls-1{fill:orange;}</style></defs><title>comfort</title><path class="cls-1" d="M19,37.3a.9.9,0,0,1,0,1.8H13.8a.9.9,0,0,1,0-1.8Z"/><path class="cls-1" d="M19,52.4a.9.9,0,0,1,0,1.8H13.8a.9.9,0,0,1,0-1.8Z"/><path class="cls-1" d="M19,67.6a.9.9,0,0,1,0,1.8H13.8a.9.9,0,0,1,0-1.8Z"/><path class="cls-1" d="M.9,32.9H32a.9.9,0,0,1,.9.9V79.1a.9.9,0,0,1-.9.9H.9a.9.9,0,0,1-.9-.9V33.8a.9.9,0,0,1,.9-.9Zm30.2,32H1.8V78.2H31.1V64.9ZM1.8,63.1H31.1V49.8H1.8V63.1ZM31.1,34.7H1.8V48H31.1Z"/><path class="cls-1" d="M52.4,32.9a3.42,3.42,0,0,1,3.5,3.5v16a3.55,3.55,0,0,1-1,2.5,3.19,3.19,0,0,1-1.6.9v3.7h1a4.17,4.17,0,0,1,.9-1.6,3.55,3.55,0,0,1,2.5-1h16a3.5,3.5,0,1,1,0,7H66.6v8.9a29.43,29.43,0,0,1,5.5.7,7.49,7.49,0,0,1,1.6.5l.2-.2a3.62,3.62,0,1,1-1,2.5,1.48,1.48,0,0,1,.1-.7,5.64,5.64,0,0,1-1.2-.4,26.51,26.51,0,0,0-5.9-.7,21.23,21.23,0,0,0-5.9.7,5.64,5.64,0,0,0-1.2.4c0,.2.1.5.1.7a3.42,3.42,0,1,1-1-2.5l.2.2c.5-.2,1-.3,1.6-.5a22.94,22.94,0,0,1,5.5-.7V64H58.1a3.55,3.55,0,0,1-2.5-1,3.19,3.19,0,0,1-.9-1.6H52.8a.9.9,0,0,1-.9-.9V55.9a4.17,4.17,0,0,1-1.6-.9,3.55,3.55,0,0,1-1-2.5v-16a3.55,3.55,0,0,1,1-2.5,2.25,2.25,0,0,1,2.1-1.1Zm4,42.3a1.9,1.9,0,0,0-1.3-.5,2.11,2.11,0,0,0-1.3.5,1.9,1.9,0,0,0-.5,1.3,2.11,2.11,0,0,0,.5,1.3,1.9,1.9,0,0,0,1.3.5,2.11,2.11,0,0,0,1.3-.5,1.94,1.94,0,0,0,0-2.6Zm21.3,0a1.9,1.9,0,0,0-1.3-.5,2.11,2.11,0,0,0-1.3.5,1.9,1.9,0,0,0-.5,1.3,2.11,2.11,0,0,0,.5,1.3,1.9,1.9,0,0,0,1.3.5,2.11,2.11,0,0,0,1.3-.5,1.94,1.94,0,0,0,0-2.6Zm-21.2-16a1.85,1.85,0,0,0-.5,1.2,2.11,2.11,0,0,0,.5,1.3,1.9,1.9,0,0,0,1.3.5h16a2.11,2.11,0,0,0,1.3-.5,1.9,1.9,0,0,0,.5-1.3,2.11,2.11,0,0,0-.5-1.3,1.9,1.9,0,0,0-1.3-.5h-16a2.62,2.62,0,0,0-1.3.6Zm-2.8-24a1.9,1.9,0,0,0-1.3-.5,2.11,2.11,0,0,0-1.3.5,1.9,1.9,0,0,0-.5,1.3v16a2.11,2.11,0,0,0,.5,1.3,1.9,1.9,0,0,0,1.3.5,2.11,2.11,0,0,0,1.3-.5,1.9,1.9,0,0,0,.5-1.3v-16A1.9,1.9,0,0,0,53.7,35.2Z"/><path class="cls-1" d="M40,29.3a.9.9,0,0,1,1.8,0V78.2h3.6a.9.9,0,0,1,0,1.8H36.5a.9.9,0,1,1,0-1.8H40Z"/><path class="cls-1" d="M34.2,0H47.5a.88.88,0,0,1,.9.8l5.3,23.9a.92.92,0,0,1-.7,1.1H28.8a.9.9,0,0,1-.9-.9v-.3L33.2.7a1.2,1.2,0,0,1,1-.7ZM46.8,1.8H34.9L30,24H51.8Z"/></svg>