<svg id="Layer_1" data-name="Layer 1" xmlns="http://www.w3.org/2000/svg" viewBox="0 0 80 70.7"><defs><style>.cls-1{fill:orange;}</style></defs><title>conditioning</title><path class="cls-1" d="M79.1-.7H.9A.9.9,0,0,0,0,.2V69.1a.9.9,0,0,0,.9.9H79.1a1,1,0,0,0,.9-.9V.1A.88.88,0,0,0,79.1-.7Zm-38.3,47v-.2a1,1,0,0,0-.9-.9H31.1a.72.72,0,0,0-.7.4.75.75,0,0,0-.4.7V61.9a11.28,11.28,0,0,1-8.1-3.5c-4.3-4.5-3.7-12.1-3.7-12.2a1,1,0,0,0-.6-.9,1.69,1.69,0,0,0-.5-.2H15.9v-12H20a1,1,0,0,0,.9-.9.9.9,0,0,0-.9-.9H1.7V16.8H28.4a1,1,0,0,0,.9-.9V1H39.5a.65.65,0,0,0-.2.5v9.6a1,1,0,0,0,.9.9h15c-.2,3.5-1.3,6.3-3.5,8.3-4.4,4.1-11.6,3.6-11.6,3.6a1,1,0,0,0-.9.8c0,.2,0,.3.1.4V39.9a1,1,0,0,0,.9.9.9.9,0,0,0,.9-.9V35.5H78.5V49.2H58a1,1,0,0,0-.9.9V68.2H40.9V46.4A.1.1,0,0,0,40.8,46.3ZM1.9,45.2H1.7v-12H14v12Zm56.9,7.1,8.6,7.3-8.6,7.3Zm1.1-1.4H77.8l-8.9,7.6Zm8.9,9.9,8.8,7.5H60Zm1.3-1.2,8.2-6.9v14Zm8.2-25.9H40.9V25.4c2.3,0,7.9-.4,11.9-4.1,2.7-2.5,4-6,4-10.4a1,1,0,0,0-.9-.9h-15V1.5a.76.76,0,0,0-.2-.5H78.4l-.1,32.7ZM27.5,1V6.2c-.1,0-.2-.1-.3-.1H17.9A.84.84,0,0,0,17,7a1,1,0,0,0,.9.9h9.3a.37.37,0,0,0,.3-.1v2.4c-.1,0-.2-.1-.3-.1H17.9a1,1,0,0,0-.9.9,1,1,0,0,0,.9.9h9.3a.37.37,0,0,0,.3-.1v3.3H1.7V1ZM1.7,46.9H16.4c0,2.1.3,8.4,4.3,12.7,2.5,2.7,6,4,10.2,4a1,1,0,0,0,.9-.9V46.9h7.4V68.2H1.7Z" transform="translate(0 0.7)"/><path class="cls-1" d="M8.3,12.5h3.5a3,3,0,0,0,3-3V7.3a3,3,0,0,0-3-3H8.3a3,3,0,0,0-3,3V9.4A3,3,0,0,0,8.3,12.5ZM6.9,7.3A1.42,1.42,0,0,1,8.3,6h3.5a1.32,1.32,0,0,1,1.3,1.3V9.4a1.32,1.32,0,0,1-1.3,1.3H8.3A1.32,1.32,0,0,1,7,9.4,14.08,14.08,0,0,1,6.9,7.3Z" transform="translate(0 0.7)"/></svg>