<svg id="Layer_1" data-name="Layer 1" xmlns="http://www.w3.org/2000/svg" viewBox="0 0 26 29"><defs><style>.cls-1{fill:#fff;}</style></defs><title>download</title><path class="cls-1" d="M23.1,7H17.2V8.1h5.9a1.79,1.79,0,0,1,1.8,1.8V26.2A1.79,1.79,0,0,1,23.1,28H3a1.79,1.79,0,0,1-1.8-1.8V9.8A1.79,1.79,0,0,1,3,8H8.9V7H3A2.91,2.91,0,0,0,0,9.8V26.1A3,3,0,0,0,3,29H23.1A2.9,2.9,0,0,0,26,26.1V9.8A2.82,2.82,0,0,0,23.1,7Z"/><path class="cls-1" d="M8.5,14.8l4.1,3.9a.5.5,0,0,0,.8,0l4.1-3.9-.7-.8-3.2,3V0H12.5V17L9.3,14Z"/></svg>