<svg id="Layer_1" data-name="Layer 1" xmlns="http://www.w3.org/2000/svg" viewBox="0 0 66.9 55.6"><defs><style>.cls-1{fill:orange;}</style></defs><title>electricity</title><path class="cls-1" d="M63.6.4H3.4A3.44,3.44,0,0,0,0,3.8V52.5A3.4,3.4,0,0,0,3.4,56H63.5a3.37,3.37,0,0,0,3.4-3.4V3.8A3.29,3.29,0,0,0,63.6.4Zm1.1,52.2a1.11,1.11,0,0,1-1.1,1.1H3.4a1.11,1.11,0,0,1-1.1-1.1V3.8A1.11,1.11,0,0,1,3.4,2.7H63.5a1.11,1.11,0,0,1,1.1,1.1V52.6Z" transform="translate(0 -0.4)"/><path class="cls-1" d="M33.5,8A20.2,20.2,0,1,0,53.7,28.2,20.27,20.27,0,0,0,33.5,8Zm1.1,38.1V41.6a1.1,1.1,0,0,0-2.2,0v4.5a17.88,17.88,0,0,1,0-35.7v4.5a1.1,1.1,0,1,0,2.2,0V10.4a17.88,17.88,0,0,1,0,35.7Z" transform="translate(0 -0.4)"/><path class="cls-1" d="M25.9,25.2a3,3,0,0,0-3,3,3,3,0,0,0,6,0A3,3,0,0,0,25.9,25.2Zm0,3.8a.8.8,0,1,1,0-1.6.74.74,0,0,1,.8.8C26.6,28.6,26.3,29,25.9,29Z" transform="translate(0 -0.4)"/><path class="cls-1" d="M41.1,25.2a3,3,0,0,0-3,3,3,3,0,0,0,6,0A3,3,0,0,0,41.1,25.2Zm0,3.8a.8.8,0,0,1,0-1.6.74.74,0,0,1,.8.8A.86.86,0,0,1,41.1,29Z" transform="translate(0 -0.4)"/></svg>