<svg id="Capa_1" xmlns="http://www.w3.org/2000/svg" viewBox="0 0 30 30"><style>.st0{fill:#FFFFFF;}</style><path class="st0" d="M19.2 11.3c-.1 0-.3-.1-.4-.2-.2-.2-.2-.6 0-.8L29 .2c.2-.2.6-.2.8 0s.2.6 0 .8L19.6 11.2c-.1.1-.2.1-.4.1zM.6 30c-.1 0-.3-.1-.4-.2-.2-.2-.2-.6 0-.8l10.2-10.2c.2-.2.6-.2.8 0 .2.2.2.6 0 .8L1 29.8c-.1.1-.3.2-.4.2zM29.4 30c-.1 0-.3-.1-.4-.2L18.8 19.6c-.2-.2-.2-.6 0-.8s.6-.2.8 0L29.8 29c.2.2.2.6 0 .8-.1.1-.2.2-.4.2zM10.8 11.3c-.1 0-.3-.1-.4-.2L.2 1C0 .8 0 .4.2.2s.6-.2.8 0l10.2 10.2c.2.2.2.6 0 .8-.2.1-.3.1-.4.1z"/><path class="st0" d="M7.4 1.1H.6C.3 1.1 0 .9 0 .6S.3 0 .6 0h6.8c.3 0 .6.3.6.6s-.3.5-.6.5z"/><path class="st0" d="M.6 7.9c-.3 0-.6-.2-.6-.5V.6C0 .3.3 0 .6 0s.6.3.6.6v6.8c-.1.3-.3.5-.6.5zM29.4 30h-6.8c-.3 0-.6-.3-.6-.6s.3-.6.6-.6h6.8c.3 0 .6.3.6.6s-.3.6-.6.6z"/><path class="st0" d="M29.4 30c-.3 0-.6-.3-.6-.6v-6.8c0-.3.3-.6.6-.6s.6.3.6.6v6.8c0 .3-.3.6-.6.6zM.6 30c-.3 0-.6-.3-.6-.6v-6.8c0-.3.3-.6.6-.6s.6.3.6.6v6.8c-.1.3-.3.6-.6.6z"/><path class="st0" d="M7.4 30H.6c-.3 0-.6-.3-.6-.6s.3-.6.6-.6h6.8c.3 0 .6.3.6.6s-.3.6-.6.6zM29.4 7.9c-.3 0-.6-.3-.6-.6V.6c0-.3.3-.6.6-.6s.6.3.6.6v6.8c0 .3-.3.5-.6.5z"/><path class="st0" d="M29.4 1.1h-6.8c-.3 0-.6-.3-.6-.6s.3-.5.6-.5h6.8c.3 0 .6.3.6.6s-.3.5-.6.5z"/><path class="st0" d="M29.4 1.1h-6.8c-.3 0-.6-.3-.6-.6s.3-.5.6-.5h6.8c.3 0 .6.3.6.6s-.3.5-.6.5z"/></svg>