<svg id="Layer_1" data-name="Layer 1" xmlns="http://www.w3.org/2000/svg" viewBox="0 0 55.8 69.9"><defs><style>.cls-1{fill:orange;}</style></defs><title>lifts</title><path class="cls-1" d="M43.1,57.1v-4A1.11,1.11,0,0,0,42,52H39.5L55.6,34.8a1.09,1.09,0,0,0,0-1.5L35.8,14.2l4-4.3a1,1,0,0,0-.1-1.5l-2-1.9,2.1-2.2a1,1,0,0,0-.1-1.5L37,.3a1.14,1.14,0,0,0-.8-.3.78.78,0,0,0-.7.3L33.4,2.5,31.8,1a1,1,0,0,0-1.5.1L19.5,12.8a14.66,14.66,0,0,0-4.2-.5A20.47,20.47,0,0,0,.4,19.2a1.14,1.14,0,0,0-.3.8.91.91,0,0,0,.3.7L23.3,41.6a1.08,1.08,0,0,0,.7.3,1.14,1.14,0,0,0,.8-.3c5.4-6,6.9-14,4.3-20.2l5.1-5.5,19,18.3L36.6,51.9H32.1A1.11,1.11,0,0,0,31,53v4c-6.7,1.6-11.5,5.8-12.8,11.6a1,1,0,0,0,.2.9.91.91,0,0,0,.8.4H54.7a.91.91,0,0,0,.8-.4,1,1,0,0,0,.2-.9C54.6,62.9,49.8,58.6,43.1,57.1ZM36.3,2.6l1.1,1L36.1,5,35,4ZM24,39.2,2.7,19.8a17.79,17.79,0,0,1,12.5-5.4,14.21,14.21,0,0,1,4.2.6h0a11.18,11.18,0,0,1,2.5,1.1h0a3.59,3.59,0,0,1,1,.7l.1.1a8.74,8.74,0,0,1,1,.8l.9.9c.2.2.3.4.5.6s.2.3.3.4a3.51,3.51,0,0,1,.5.8c0,.1.1.1.1.2a4.67,4.67,0,0,1,.5,1C29.5,26.8,28.5,33.8,24,39.2Zm3.1-21.4c-.1-.1-.1-.2-.2-.3a8.64,8.64,0,0,0-1.3-1.4,19.23,19.23,0,0,0-1.7-1.3c-.1,0-.1-.1-.2-.1a12.81,12.81,0,0,0-2-1.1L31.2,3.4l1.6,1.5h0l2.7,2.5h0l2,1.9-9.3,10-.1-.1A7.1,7.1,0,0,0,27.1,17.8Zm6.1,36.3H41v2.6a23.76,23.76,0,0,0-3.9-.3,25.61,25.61,0,0,0-3.9.3ZM20.7,67.9c2-5.7,8.2-9.3,16.3-9.3s14.4,3.6,16.3,9.3Z" transform="translate(-0.1)"/></svg>