<svg id="Layer_1" data-name="Layer 1" xmlns="http://www.w3.org/2000/svg" viewBox="0 0 285 83"><defs><style>.cls-1{fill:#fff;}</style></defs><title>logo</title><path class="cls-1" d="M36.2,33.1V26.4a6.53,6.53,0,0,0-.2-1.7.76.76,0,0,0-.8-.6h-.5v-.6a4.87,4.87,0,0,1,1.2.1,5.64,5.64,0,0,1,.7.1,8.8,8.8,0,0,0,1.4-.1,10.9,10.9,0,0,1,1.7-.1,3.42,3.42,0,0,1,2.6.9,3.1,3.1,0,0,1,.9,2.2,2,2,0,0,1-.4,1.3A2.89,2.89,0,0,1,41.7,29a4.92,4.92,0,0,1-1.7.6v.2h.4a5.16,5.16,0,0,1,1.1.2,12.13,12.13,0,0,1,1.4.5,4.15,4.15,0,0,1,1.2,1.1,3.45,3.45,0,0,1,.5,1.8,6.75,6.75,0,0,1-.2,1.4,5.39,5.39,0,0,1-.7,1.3,3,3,0,0,1-1.3.9,5.33,5.33,0,0,1-1.9.4H39.4c-.2,0-.5-.1-1-.1a4.48,4.48,0,0,0-1.1-.1,2.81,2.81,0,0,0-.8.1c-.3,0-.6.1-.8.1h-.8v-.6h.4a.75.75,0,0,0,.7-.5,2.77,2.77,0,0,0,.3-1.3A11.48,11.48,0,0,1,36.2,33.1Zm1.6-5.3v1.7h.6a3.06,3.06,0,0,0,1.7-.4,2.71,2.71,0,0,0,1.1-1,3.26,3.26,0,0,0,.4-1.4,3.08,3.08,0,0,0-.3-1.3,2.19,2.19,0,0,0-.9-1,1.75,1.75,0,0,0-1.2-.4H37.8Zm0,2.3v4.2a5.76,5.76,0,0,0,.1,1.5,1.06,1.06,0,0,0,.6.7,2.76,2.76,0,0,0,1.4.2c2,0,3-1.1,3-3.4a2.81,2.81,0,0,0-.6-2,3.07,3.07,0,0,0-1.5-1,5.82,5.82,0,0,0-1.9-.3A5.94,5.94,0,0,1,37.8,30.1Z"/><path class="cls-1" d="M47.6,33.8V27a7.12,7.12,0,0,0-.1-1.6,1.69,1.69,0,0,0-.3-1,1,1,0,0,0-.7-.4H46v-.6c1.2.1,2.5.1,4.1.1,1.8,0,3.2,0,4.4-.1-.2,1.1-.4,2.2-.7,3.3h-.7a4.25,4.25,0,0,0,.2-1.1,1.22,1.22,0,0,0-.3-.9,1.88,1.88,0,0,0-1.3-.3H49.3c-.1,1-.1,2-.1,3v2.2l1.3.1h1.3a1.48,1.48,0,0,0,.7-.1.82.82,0,0,0,.5-.5,2.51,2.51,0,0,0,.2-1h.5a24.18,24.18,0,0,0-.3,4.2h-.6v-.6c0-.9-.4-1.3-1.2-1.3H50.3l-1.3.1v3.3a7.12,7.12,0,0,0,.1,1.6c.1.4.2.7.4.8a.86.86,0,0,0,.6.3c.2,0,.6.1,1,.1a7.59,7.59,0,0,0,1.6-.1,1.9,1.9,0,0,0,1.1-.7,4,4,0,0,0,.8-1.6h.7c-.2.9-.4,1.5-.5,2a1.71,1.71,0,0,1-.6.9.84.84,0,0,1-.7.2,17,17,0,0,1-2.3-.1c-1.6-.1-2.6-.2-3-.2a2.48,2.48,0,0,0-.9.1c-.3,0-.5.1-.7.1H46v-.6h.6c.4,0,.7-.3.8-.8A10.31,10.31,0,0,0,47.6,33.8Z"/><path class="cls-1" d="M61.6,37.2h-1a2,2,0,0,1-.8-.1c-.2,0-.4-.1-.8-.1a2.77,2.77,0,0,0-.9.1,2,2,0,0,1-.7.1h-.8v-.6H57q.75,0,.9-.9a14.36,14.36,0,0,0,.2-2.4V26.2A4.12,4.12,0,0,0,58,25a1.61,1.61,0,0,0-.4-.7,1.33,1.33,0,0,0-1-.3v-.6c1.1.1,1.7.1,1.8.1a9.89,9.89,0,0,0,1.5-.1c.7,0,1.2-.1,1.5-.1a4.27,4.27,0,0,1,2.4.6,4,4,0,0,1,1.4,1.5,4.06,4.06,0,0,1,.4,1.9,3.61,3.61,0,0,1-.6,2,4,4,0,0,1-1.5,1.4,4.55,4.55,0,0,1-2,.5,2.77,2.77,0,0,1-.9-.1v-.5a1.27,1.27,0,0,0,.6.1,2.69,2.69,0,0,0,1.5-.5,3.45,3.45,0,0,0,1-1.3,4.15,4.15,0,0,0,.3-1.6,3.83,3.83,0,0,0-.5-1.9,3.74,3.74,0,0,0-1.3-1.2,8.79,8.79,0,0,0-1.4-.2,2.77,2.77,0,0,0-.9.1v9.7a9.49,9.49,0,0,0,.2,2,.8.8,0,0,0,.9.7h.6Z"/><path class="cls-1" d="M69.1,33.8V27a7.12,7.12,0,0,0-.1-1.6,1.69,1.69,0,0,0-.3-1A1,1,0,0,0,68,24h-.4v-.6c1.2.1,2.5.1,4.1.1,1.8,0,3.2,0,4.4-.1-.2,1.1-.4,2.2-.7,3.3h-.7a4.25,4.25,0,0,0,.2-1.1,1.22,1.22,0,0,0-.3-.9,1.88,1.88,0,0,0-1.3-.3H70.9c-.1,1-.1,2-.1,3v2.2l1.3.1h1.3a1.48,1.48,0,0,0,.7-.1.82.82,0,0,0,.5-.5,2.51,2.51,0,0,0,.2-1h.5a24.18,24.18,0,0,0-.3,4.2h-.6v-.6c0-.9-.4-1.3-1.2-1.3H71.9l-1.3.1v3.3a7.12,7.12,0,0,0,.1,1.6c.1.4.2.7.4.8a.86.86,0,0,0,.6.3c.2,0,.6.1,1,.1a7.59,7.59,0,0,0,1.6-.1,1.9,1.9,0,0,0,1.1-.7,4,4,0,0,0,.8-1.6h.7c-.2.9-.4,1.5-.5,2a1.71,1.71,0,0,1-.6.9.84.84,0,0,1-.7.2,17,17,0,0,1-2.3-.1c-1.6-.1-2.6-.2-3-.2a2.48,2.48,0,0,0-.9.1c-.3,0-.5.1-.7.1h-.5v-.6h.6c.4,0,.7-.3.8-.8Z"/><path class="cls-1" d="M93.3,37.2H91.9a3.22,3.22,0,0,0-.8-.1,3.44,3.44,0,0,0-.9.1H88.9v-.6h.4a.75.75,0,0,0,.7-.5,2,2,0,0,0,.3-1.1c0-.4.1-.9.1-1.6V27.1a7.72,7.72,0,0,1,.2-1.5l-.1-.1A15.12,15.12,0,0,1,88.7,28c-.7,1-1.6,2-2.5,3.1s-1.9,2.2-2.8,3.2-1.8,2-2.7,2.9l-.8.1c.1-1.2.1-2.3.1-3.4V26a4.64,4.64,0,0,0-.2-1.4.79.79,0,0,0-.8-.5h-.4v-.6H79a2,2,0,0,1,.7.1c.4,0,.7.1.9.1a3.44,3.44,0,0,0,.9-.1,2,2,0,0,1,.7-.1h.7V24h-.4a1,1,0,0,0-.9.6,7.18,7.18,0,0,0-.2,1.7v5.6c0,.4-.1,1.6-.2,3.6h.1l3-3.6c1.8-2.1,4.1-4.9,6.9-8.6l.7-.1c-.1,1.6-.1,2.5-.1,2.7v8.9a4.87,4.87,0,0,0,.2,1.5c.1.3.4.5.9.5h.4ZM89,19.8l.6.5a7.28,7.28,0,0,1-1.7,1.8,3.72,3.72,0,0,1-2.2.8,2.93,2.93,0,0,1-1.6-.4,2.54,2.54,0,0,1-.9-1.3,3.64,3.64,0,0,0,1.6-1.4l.1.1a1.21,1.21,0,0,1-.1.5c0,1,.4,1.5,1.3,1.5a3,3,0,0,0,1.5-.5A3.11,3.11,0,0,0,89,19.8Z"/><path class="cls-1" d="M107,27.1h-.6a2.49,2.49,0,0,0-1.2-2.5,6.09,6.09,0,0,0-2.8-.6h-.5a4.42,4.42,0,0,0-2.4.7,5.37,5.37,0,0,0-2,2.2,7.54,7.54,0,0,0-.8,3.5,8.21,8.21,0,0,0,.5,2.8,6,6,0,0,0,1.4,2,7.61,7.61,0,0,0,1.9,1.2,5.09,5.09,0,0,0,2,.4,5.82,5.82,0,0,0,1.9-.3,3.77,3.77,0,0,0,1.5-.9,5.26,5.26,0,0,0,1.1-1.4h.7a.35.35,0,0,1-.1.2v.1a.1.1,0,0,1-.1.1c0,.1-.1.1-.1.2a3.46,3.46,0,0,1-.7,1.2,3.88,3.88,0,0,1-1.4,1,7,7,0,0,1-2.8.5,8.15,8.15,0,0,1-5.6-2.2A7.33,7.33,0,0,1,95.3,33a6.6,6.6,0,0,1-.6-2.7,8,8,0,0,1,.5-2.6,6.78,6.78,0,0,1,1.4-2.3A6,6,0,0,1,99,23.8a7.94,7.94,0,0,1,3.2-.6,19.42,19.42,0,0,1,2.4.2,11.55,11.55,0,0,0,1.6.2,2.22,2.22,0,0,0,.9-.1,26.42,26.42,0,0,0-.2,2.9A2,2,0,0,1,107,27.1Z"/><path class="cls-1" d="M109,37.2v-.6h.4a.93.93,0,0,0,.9-.7,9.49,9.49,0,0,0,.2-2V26.5a8.44,8.44,0,0,0-.2-1.9.88.88,0,0,0-.9-.7H109v-.6h.7a3.44,3.44,0,0,1,.9.1c.2,0,.5.1.7.1a2.49,2.49,0,0,0,.8-.1,3.44,3.44,0,0,1,.9-.1h.7V24h-.4a.88.88,0,0,0-.9.8,11.8,11.8,0,0,0-.2,2.2v6.8a10.61,10.61,0,0,0,.2,2.1.8.8,0,0,0,.9.7h.4v.6H113a1.49,1.49,0,0,1-.6-.1c-.3,0-.6-.1-.9-.1a2.77,2.77,0,0,0-.9.1,2.25,2.25,0,0,1-.7.1Zm7.7-13.7h.7a1.09,1.09,0,0,1,.5.1,1,1,0,0,0,.4.1h1.6a1.76,1.76,0,0,1,.6-.1h.5V24h-.3a1.88,1.88,0,0,0-.8.2,3.51,3.51,0,0,0-.8.5c-.2.2-.5.4-.8.7a9,9,0,0,1-1,.9l-3.6,3.3a5.36,5.36,0,0,1,2.3,1.6c.8.9,1.6,1.9,2.5,3.1.6.8,1,1.3,1.2,1.6a3.81,3.81,0,0,0,.5.6.76.76,0,0,0,.5.2h.9v.4a3.46,3.46,0,0,1-1.2.3A2.5,2.5,0,0,1,119,37a10.59,10.59,0,0,1-1.2-1,12.57,12.57,0,0,1-1.3-1.6,48.42,48.42,0,0,0-4-4.4c1.2-1.2,2.2-2.1,2.8-2.7l1.5-1.5c.3-.4.6-.6.7-.8s.2-.3.2-.4a.37.37,0,0,0-.1-.3.52.52,0,0,0-.4-.2h-.4v-.6Z"/><path class="cls-1" d="M128,23.2l.8-.2c.9,3.1,1.6,5.5,2.3,7.4a35.4,35.4,0,0,0,1.6,4.1,6.3,6.3,0,0,0,1.1,1.8,1.2,1.2,0,0,0,.8.4h.5v.6h-.8a1.76,1.76,0,0,1-.6-.1c-.3,0-.6-.1-1-.1a4.1,4.1,0,0,0-1.1.1,3.44,3.44,0,0,1-.9.1h-.5v-.6h.5c.4,0,.6-.3.6-.8a2.25,2.25,0,0,0-.1-.7c-.3-1.2-.6-2-.8-2.7a19.3,19.3,0,0,1-2.3.1,17,17,0,0,1-2.2-.1c-.3.7-.5,1.3-.7,1.8a3.18,3.18,0,0,0-.2,1.3,2.22,2.22,0,0,0,.1.9.6.6,0,0,0,.6.3h.6v.6h-.6a2,2,0,0,1-.7-.1c-.3,0-.6-.1-.9-.1a2.77,2.77,0,0,0-.9.1,1.76,1.76,0,0,1-.6.1h-.7v-.6h.5c.4,0,.9-.5,1.5-1.6a35.24,35.24,0,0,0,1.7-3.8c.5-1.5,1-2.9,1.4-4.3S127.7,24.3,128,23.2Zm.1,2.5H128a28.87,28.87,0,0,1-1,3.5c-.3.9-.6,1.8-.9,2.6a17.86,17.86,0,0,0,2.1.1,12.1,12.1,0,0,0,1.9-.1l-.3-.9c-.1-.3-.2-.6-.3-1C128.8,27.9,128.3,26.5,128.1,25.7Z"/><path class="cls-1" d="M145.3,27.1v6.2a16.86,16.86,0,0,0,.2,2.5q.15.9.9.9h.5v.6H146a2,2,0,0,1-.7-.1c-.2,0-.5-.1-.7-.1a2.2,2.2,0,0,0-.8.1,2,2,0,0,1-.7.1h-.8v-.6h.4q.75,0,.9-.9a12.73,12.73,0,0,0,.2-2.2V24.2a5,5,0,0,0-1.2-.2,3.29,3.29,0,0,0-1.7.4,3.18,3.18,0,0,0-1.2,1.1,3.14,3.14,0,0,0,0,3.4,3.18,3.18,0,0,0,1.2,1.1,4.29,4.29,0,0,0,1.4.4h.9v.4a3.26,3.26,0,0,0-1.2.6c-.2.3-.5.7-.9,1.3-.6,1-1.2,1.9-1.6,2.6a6.07,6.07,0,0,1-1.6,1.6,3.23,3.23,0,0,1-1.8.6,2.77,2.77,0,0,1-.9-.1v-.6h.4a2.92,2.92,0,0,0,.9-.2,1.17,1.17,0,0,0,.6-.6,11.85,11.85,0,0,0,.8-1.2,4.15,4.15,0,0,1,.7-1.1c.4-.6.7-1.1.9-1.4a2.36,2.36,0,0,1,.9-.8,3.34,3.34,0,0,1,1.2-.5v-.2a6.56,6.56,0,0,1-2.9-.8,2.86,2.86,0,0,1-1.2-2.6,3.44,3.44,0,0,1,2.3-3.4,5.38,5.38,0,0,1,2.2-.4,7.17,7.17,0,0,1,1.3.1c.6,0,1,.1,1.3.1a14.84,14.84,0,0,0,2.3-.1V24a2.15,2.15,0,0,0-1,.2c-.2.2-.4.4-.4.6s-.1.7-.1,1.1v1.2Z"/><path class="cls-1" d="M160.6,37.2h-1.2c-.1,0-.2-.1-.3-.1h-.7a1.27,1.27,0,0,0-.6.1,7.72,7.72,0,0,1-1,.1H156v-.6h.4q.75,0,.9-.9a14.36,14.36,0,0,0,.2-2.4V27a7.11,7.11,0,0,0-.1-1.6,1.35,1.35,0,0,0-.5-.9,1.53,1.53,0,0,0-1-.4v-.6c1.8.1,4.2.1,7.2.1s5.3,0,7.2-.1V24a1.33,1.33,0,0,0-1,.3,1.27,1.27,0,0,0-.4.9,7.11,7.11,0,0,0-.1,1.6v6.8a12.73,12.73,0,0,0,.2,2.2q.15.9.9.9h.4v.6h-.7a2.81,2.81,0,0,1-.8-.1c-.2,0-.4-.1-.7-.1a2.2,2.2,0,0,0-.8.1,3.22,3.22,0,0,1-.8.1h-.8v-.6h.4a.93.93,0,0,0,.9-.7,7.45,7.45,0,0,0,.2-1.8V24.3h-8.1v9.6a8.75,8.75,0,0,0,.2,2,.8.8,0,0,0,.9.7h.4v.6Z"/><path class="cls-1" d="M177.8,23.4l.8-.2a37.76,37.76,0,0,0,1.2,3.6c.4,1.1.6,1.8.8,2.2s.4,1.1.8,2.2.7,1.8.9,2.5a15.59,15.59,0,0,0,1,2.2,1.41,1.41,0,0,0,1.2.8h.4v.6h-.6a4.14,4.14,0,0,1-1-.1c-.3,0-.6-.1-1-.1a2.77,2.77,0,0,0-.9.1,2.49,2.49,0,0,1-.8.1h-.7v-.6h.3c.4,0,.6-.1.7-.3a2.15,2.15,0,0,0,.2-1,3.6,3.6,0,0,0-.2-1.1c-.1-.3-.4-1-.8-2s-.8-2-1.1-3c-.6-1.7-.9-2.9-1.1-3.6h-.1a23.77,23.77,0,0,1-.7,2.9c-.3.9-.6,1.8-.9,2.8s-.6,1.7-.8,2.2-.3.9-.4,1.2a3.4,3.4,0,0,0-.1,1c0,.3,0,.6.1.7s.3.2.6.2h.5v.6h-.7a2.81,2.81,0,0,1-.8-.1c-.3,0-.6-.1-.9-.1a2.77,2.77,0,0,0-.9.1,3.22,3.22,0,0,1-.8.1h-.6v-.6h.5c.5,0,1.1-.5,1.7-1.5a19.5,19.5,0,0,0,1.7-3.8c.5-1.5,1-3,1.4-4.4A22.4,22.4,0,0,0,177.8,23.4Z"/><path class="cls-1" d="M191.3,23.2l.8-.2c.9,3.1,1.6,5.5,2.3,7.4a35.4,35.4,0,0,0,1.6,4.1,6.3,6.3,0,0,0,1.1,1.8,1.2,1.2,0,0,0,.8.4h.5v.6h-.8a1.76,1.76,0,0,1-.6-.1c-.3,0-.6-.1-1-.1a4.1,4.1,0,0,0-1.1.1,3.44,3.44,0,0,1-.9.1h-.5v-.6h.5c.4,0,.6-.3.6-.8a2.25,2.25,0,0,0-.1-.7c-.3-1.2-.6-2-.8-2.7a19.3,19.3,0,0,1-2.3.1,17,17,0,0,1-2.2-.1c-.3.7-.5,1.3-.7,1.8a3.18,3.18,0,0,0-.2,1.3,2.22,2.22,0,0,0,.1.9.6.6,0,0,0,.6.3h.6v.6H189a2,2,0,0,1-.7-.1c-.3,0-.6-.1-.9-.1a2.77,2.77,0,0,0-.9.1,1.76,1.76,0,0,1-.6.1h-.7v-.6h.5c.4,0,.9-.5,1.5-1.6a35.24,35.24,0,0,0,1.7-3.8c.5-1.5,1-2.9,1.4-4.3S191,24.3,191.3,23.2Zm.1,2.5h-.1a28.87,28.87,0,0,1-1,3.5c-.3.9-.6,1.8-.9,2.6a17.86,17.86,0,0,0,2.1.1,12.1,12.1,0,0,0,1.9-.1l-.3-.9c-.1-.3-.2-.6-.3-1C192.1,27.9,191.6,26.5,191.4,25.7Z"/><path class="cls-1" d="M202,30.1v-.9h.5a3.56,3.56,0,0,0,1.9-.5,2.59,2.59,0,0,0,1-1.1,3.08,3.08,0,0,0,.3-1.3,2.77,2.77,0,0,0-.3-1.3,2,2,0,0,0-.9-.9,2.66,2.66,0,0,0-1.2-.3,2.13,2.13,0,0,0-1.6.7,3.77,3.77,0,0,0-1,2.2H200c.1-1,.2-1.7.2-2.3v-.9c.3,0,.6.1,1.1.1a3.75,3.75,0,0,0,1-.1c.4-.1.8-.1,1.2-.2h1a3.29,3.29,0,0,1,1.7.4,2.4,2.4,0,0,1,1,1,3.08,3.08,0,0,1-.5,3.4,4.4,4.4,0,0,1-2.6,1.5v.1h.4a5.55,5.55,0,0,1,1.7.3,4.19,4.19,0,0,1,1.6,1.1,3.22,3.22,0,0,1,.7,2,4.2,4.2,0,0,1-.6,2.1,4,4,0,0,1-1.8,1.6,5.54,5.54,0,0,1-2.6.6,6.16,6.16,0,0,1-2.7-.5,2.3,2.3,0,0,1-1.1-1.3,9.2,9.2,0,0,1-.2-1.9v-.4h.6a4.94,4.94,0,0,0,.5,1.6,3.48,3.48,0,0,0,1.1,1.3,3.37,3.37,0,0,0,1.7.5,2.93,2.93,0,0,0,1.6-.4,3.45,3.45,0,0,0,1.2-1.2,3.81,3.81,0,0,0,.4-1.9,3.24,3.24,0,0,0-.9-2.4,3.33,3.33,0,0,0-2.5-.9A3.73,3.73,0,0,1,202,30.1Z"/><path class="cls-1" d="M215.6,23.2l.8-.2c.9,3.1,1.6,5.5,2.3,7.4a35.4,35.4,0,0,0,1.6,4.1,6.3,6.3,0,0,0,1.1,1.8,1.2,1.2,0,0,0,.8.4h.5v.6h-.8a1.76,1.76,0,0,1-.6-.1c-.3,0-.6-.1-1-.1a4.1,4.1,0,0,0-1.1.1,3.44,3.44,0,0,1-.9.1h-.5v-.6h.5c.4,0,.6-.3.6-.8a2.25,2.25,0,0,0-.1-.7c-.3-1.2-.6-2-.8-2.7a19.3,19.3,0,0,1-2.3.1,17,17,0,0,1-2.2-.1c-.3.7-.5,1.3-.7,1.8a3.18,3.18,0,0,0-.2,1.3,2.22,2.22,0,0,0,.1.9.6.6,0,0,0,.6.3h.6v.6h-.6a2,2,0,0,1-.7-.1c-.3,0-.6-.1-.9-.1a2.77,2.77,0,0,0-.9.1,1.76,1.76,0,0,1-.6.1h-.7v-.6h.5c.4,0,.9-.5,1.5-1.6a35.24,35.24,0,0,0,1.7-3.8c.5-1.5,1-2.9,1.4-4.3S215.3,24.3,215.6,23.2Zm.2,2.5h-.1a28.87,28.87,0,0,1-1,3.5c-.3.9-.6,1.8-.9,2.6a17.86,17.86,0,0,0,2.1.1,12.1,12.1,0,0,0,1.9-.1l-.3-.9c-.1-.3-.2-.6-.3-1A32.73,32.73,0,0,1,215.8,25.7Z"/><path class="cls-1" d="M231.2,37.2v-.6h.4a.75.75,0,0,0,.7-.5,2.13,2.13,0,0,0,.3-1.2c0-.5.1-1,.1-1.7V26.5a7.45,7.45,0,0,0-.2-1.8.8.8,0,0,0-.9-.6h-.4v-.6h.7a2.2,2.2,0,0,1,.8.1,2.25,2.25,0,0,0,.7.1,2.81,2.81,0,0,0,.8-.1c.3,0,.6-.1.8-.1h.7V24h-.4c-.5,0-.7.2-.9.7a8.44,8.44,0,0,0-.2,1.9v7.2a10.32,10.32,0,0,0,.2,2,.8.8,0,0,0,.9.7h.4v.6H235a2,2,0,0,1-.7-.1c-.3,0-.6-.1-.9-.1a2.2,2.2,0,0,0-.8.1,2,2,0,0,1-.7.1h-.7Z"/><path class="cls-1" d="M237.9,37.2v-.6h.4a.75.75,0,0,0,.7-.5,2.13,2.13,0,0,0,.3-1.2c0-.5.1-1,.1-1.7V26.5a7.45,7.45,0,0,0-.2-1.8.8.8,0,0,0-.9-.6h-.4v-.6h.7a2.2,2.2,0,0,1,.8.1,2.25,2.25,0,0,0,.7.1,2.81,2.81,0,0,0,.8-.1c.3,0,.6-.1.8-.1h.7V24H242c-.5,0-.7.2-.9.7a8.44,8.44,0,0,0-.2,1.9v7.2a10.32,10.32,0,0,0,.2,2,.8.8,0,0,0,.9.7h.4v.6h-.7a2,2,0,0,1-.7-.1c-.3,0-.6-.1-.9-.1a2.2,2.2,0,0,0-.8.1,2,2,0,0,1-.7.1h-.7Z"/><path class="cls-1" d="M244.7,37.2v-.6h.4a.75.75,0,0,0,.7-.5,2.13,2.13,0,0,0,.3-1.2c0-.5.1-1,.1-1.7V26.5a7.45,7.45,0,0,0-.2-1.8.8.8,0,0,0-.9-.6h-.4v-.6h.7a2.2,2.2,0,0,1,.8.1,2.25,2.25,0,0,0,.7.1,2.81,2.81,0,0,0,.8-.1c.3,0,.6-.1.8-.1h.7V24h-.4c-.5,0-.7.2-.9.7a8.44,8.44,0,0,0-.2,1.9v7.2a10.32,10.32,0,0,0,.2,2,.8.8,0,0,0,.9.7h.4v.6h-.7a2,2,0,0,1-.7-.1c-.3,0-.6-.1-.9-.1a2.2,2.2,0,0,0-.8.1,2,2,0,0,1-.7.1h-.7Z"/><path class="cls-1" d="M56.6,58.8c.7,0,1.1-.3,1.3-2.3l.4-2.9h3.5v5.1h.5v1.7h-.7V59.3H57.3v1.1h-.7Zm1.2,0h3.4V54.3H59l-.3,2.3A3.49,3.49,0,0,1,57.8,58.8Z"/><path class="cls-1" d="M69.4,59.4V53.6h3.8v.6H70.1v1.9h3v.6h-3v2h3.1v.6H69.4Z"/><path class="cls-1" d="M80,58.9c.7,0,1.1-.4,1.3-2.3l.4-2.9h3.5v5.8h-.7V54.4H82.3L82,56.6c-.3,2.5-1,2.9-2,2.9Z"/><path class="cls-1" d="M92.4,56.5a2.9,2.9,0,1,1,2.9,3A2.86,2.86,0,0,1,92.4,56.5Zm5,0a2.12,2.12,0,1,0-4.2,0,2.19,2.19,0,0,0,2.1,2.4A2.14,2.14,0,0,0,97.4,56.5Z"/><path class="cls-1" d="M105.4,59.4V53.6H108a1.45,1.45,0,0,1,1.6,1.5,1.31,1.31,0,0,1-1,1.3,1.41,1.41,0,0,1,1.1,1.4,1.55,1.55,0,0,1-1.7,1.6Zm3.4-4.2a.87.87,0,0,0-1-.9h-1.7v1.9h1.7C108.5,56.1,108.8,55.7,108.8,55.2Zm.1,2.6a1,1,0,0,0-1.1-1H106v2h1.8A1,1,0,0,0,108.9,57.8Z"/><path class="cls-1" d="M116.7,56.5a2.9,2.9,0,1,1,2.9,3A2.81,2.81,0,0,1,116.7,56.5Zm5,0a2.12,2.12,0,1,0-4.2,0,2.12,2.12,0,1,0,4.2,0Z"/><path class="cls-1" d="M129.6,59.4V53.6h.7v4.5l3.3-4.5h.7v5.8h-.7V54.8l-3.4,4.6Zm2.4-6.1a1.76,1.76,0,0,1-1.5-.8l.3-.3a1.5,1.5,0,0,0,2.4,0l.3.3A1.76,1.76,0,0,1,132,53.3Z"/><path class="cls-1" d="M153.7,59.4l-2.2-2.6-.6.7v1.9h-.7V53.6h.7v3l2.6-3h.9L152,56.4l2.6,3Z"/><path class="cls-1" d="M161.5,59.4V53.6h2.6a1.45,1.45,0,0,1,1.6,1.5,1.31,1.31,0,0,1-1,1.3,1.41,1.41,0,0,1,1.1,1.4,1.55,1.55,0,0,1-1.7,1.6Zm3.4-4.2a.87.87,0,0,0-1-.9h-1.7v1.9h1.7C164.6,56.1,164.9,55.7,164.9,55.2Zm.1,2.6a1,1,0,0,0-1.1-1h-1.8v2h1.8A1,1,0,0,0,165,57.8Z"/><path class="cls-1" d="M177.1,59.4l-.5-1.3h-2.9l-.5,1.3h-.8l2.3-5.8h.9l2.3,5.8Zm-1.9-5L174,57.5h2.5Z"/><path class="cls-1" d="M184.8,59.4V53.6h2.3a1.65,1.65,0,0,1,1.8,1.7,1.71,1.71,0,0,1-1.8,1.7h-1.6v2.3h-.7Zm3.4-4a1.08,1.08,0,0,0-1.2-1.1h-1.5v2.2H187A1.13,1.13,0,0,0,188.2,55.4Z"/><path class="cls-1" d="M197.4,59.4V54.3h-1.8v-.6H200v.6h-1.8v5.1Z"/><path class="cls-1" d="M210.5,59.4l-.5-1.3h-2.9l-.5,1.3h-.8l2.3-5.8h.9l2.3,5.8Zm-1.9-5-1.2,3.1h2.5Z"/><path class="cls-1" d="M217.8,58.9c.7,0,1.1-.4,1.3-2.3l.4-2.9H223v5.8h-.7V54.4h-2.2l-.3,2.3c-.3,2.5-1,2.9-2,2.9Z"/><path class="cls-1" d="M285,83H0V0H285ZM5,78.1H280V4.9H5Z"/></svg>