<svg id="Layer_1" data-name="Layer 1" xmlns="http://www.w3.org/2000/svg" viewBox="0 0 797.68 363.5"><defs><style>.cls-1{fill:#565176;}</style></defs><title>navigation_arrows</title><path class="cls-1" d="M908.1,288.9l-9.3-16.7,20.9,1.6Z" transform="translate(-573.5 -1.1)"/><path class="cls-1" d="M763.2,160.4l-17.6,7.5,3.7-20.7Z" transform="translate(-573.5 -1.1)"/><path class="cls-1" d="M1049.4,328.4l16.7-9.3-1.5,20.9Z" transform="translate(-573.5 -1.1)"/><path class="cls-1" d="M1269.7,353l16.7-9.3-1.5,20.9Z" transform="translate(-573.5 -1.1)"/><path class="cls-1" d="M1329.08,76.06l-12.85-14.15L1337,58.66Z" transform="translate(-573.5 -1.1)"/><path class="cls-1" d="M584,74,573.5,58h21Z" transform="translate(-573.5 -1.1)"/><path class="cls-1" d="M1346.3,361.5c-14.7,0-46.8-3.5-62.4-5.3v.2c-2.8-.4-4.9-.7-6.2-.8-.6-.1-1.1-.1-1.6-.2h-.2c-1.3-.3-2.1-.8-1.9-2.2s1.3-1.7,2.4-1.7a2,2,0,0,1,.8.1l2.9.3c38.1,4.4,61.5,6.3,69.8,5.7,7-.5,11.7-2.6,14.4-6.3,3.1-4.2,3.7-10.7,1.8-19.3l-20-99.2-1-8.83-2.67-22.68-3.63-30.81-3.91-33.23-3.53-29.94-2.47-20.94c-1.7-14.47-5.93-28.82-9.21-43l-8.08-35L1310.1,2l3.9-.9,4.08,17.71,8,34.78c2.57,11.18,5.5,22.15,6.84,33.56l2.55,21.64,3.53,30,3.86,32.81,3.55,30.17,2.6,22c.33,2.78.44,5.69,1,8.44l20,98.9c2.2,9.8,1.3,17.4-2.5,22.5-3.5,4.7-9.1,7.2-17.3,7.9ZM964.7,266.7c-.8-.9-1.6-1.7-2.4-2.6l-5.3-5.6c-1.7-1.8-3.4-3.6-5.1-5.5-1.4-1.5-2.6-3-4.7-3.2a5.84,5.84,0,0,0-3.8,1.1l-2.5-3.1c-.1-.1,1.7-1,1.8-1.1a7.73,7.73,0,0,1,2.7-.8,9.64,9.64,0,0,1,6.4,1.4,22.76,22.76,0,0,1,3.8,3.8l5.4,5.7,5,5.3c.1.1,1.7,1.9,1.7,1.9S964.7,266.7,964.7,266.7Z" transform="translate(-573.5 -1.1)"/><path class="cls-1" d="M908.5,276.1c-.1-5.5-.2-11,.1-16.4a30.79,30.79,0,0,1,1.1-7.4,6.59,6.59,0,0,1,1.4-2.6,5.75,5.75,0,0,1,3.6-1.4,65.9,65.9,0,0,1,11.7.9,31,31,0,0,0,8.6.3c2.1-.3,5.7-.8,6.8-2.8a5.83,5.83,0,0,0-.2-6.1,23.16,23.16,0,0,0-5.5-6.2l-.1-.1-46-46,2.8-2.8,46,46c7.6,6.6,9.5,11.8,6.4,17.4-1.7,3.2-6.3,4.2-9.6,4.7a36.85,36.85,0,0,1-11-.1c-1.8-.3-3.6-.6-5.4-1-1.5-.4-3.2-1-4.7-.3-1.2.6-1.3,2.2-1.5,3.4a71.26,71.26,0,0,0-.6,12.2c0,.6,0,8.2.1,8.2C911.2,276,909.8,276,908.5,276.1ZM754.2,160l-80-11,.5-4,80,11ZM584.5,120.1l-4-.1,3-87,4,.1Z" transform="translate(-573.5 -1.1)"/><rect class="cls-1" x="1112.91" y="280.27" width="4" height="109.59" transform="translate(96.1 1409.6) rotate(-84.24)"/></svg>