<svg id="Layer_3" data-name="Layer 3" xmlns="http://www.w3.org/2000/svg" viewBox="0 0 1071.75 419.15"><defs><style>.cls-1,.cls-2,.cls-3{fill:none;stroke:#626263;stroke-linecap:round;stroke-linejoin:round;}.cls-1{stroke-width:0.25px;}.cls-2,.cls-3{stroke-width:0.15px;}.cls-3{stroke-dasharray:573.3 43 28.66 43;}</style></defs><title>offices_to_sell</title><polygon class="cls-1" points="96.22 130.93 95.63 130.93 95.63 128.22 96.22 128.22 96.22 98.83 95.63 98.83 95.63 96.83 92.63 96.83 92.63 99.92 73.33 99.92 73.33 96.83 70.03 96.83 70.03 129.53 66.22 129.53 66.22 130.93 64.92 130.93 64.92 131.43 64.92 160.22 66.22 160.22 66.22 162.93 95.63 162.93 95.63 160.22 96.22 160.22 96.22 130.93"/><rect class="cls-2" x="383.72" y="366.73" width="2.7" height="2.7"/><rect class="cls-2" x="383.72" y="326.73" width="2.7" height="2.7"/><rect class="cls-2" x="479.82" y="64.12" width="2.7" height="2.7"/><rect class="cls-2" x="447.83" y="64.12" width="2.7" height="2.7"/><rect class="cls-2" x="415.72" y="64.12" width="2.7" height="2.7"/><rect class="cls-2" x="415.72" y="32.12" width="2.7" height="2.7"/><rect class="cls-2" x="479.82" y="64.12" width="2.7" height="2.7"/><rect class="cls-2" x="415.72" y="32.12" width="2.7" height="2.7"/><rect class="cls-2" x="415.72" y="64.12" width="2.7" height="2.7"/><rect class="cls-2" x="447.83" y="64.12" width="2.7" height="2.7"/><rect class="cls-2" x="479.82" y="64.12" width="2.7" height="2.7"/><rect class="cls-2" x="415.72" y="64.12" width="2.7" height="2.7"/><rect class="cls-2" x="447.83" y="64.12" width="2.7" height="2.7"/><rect class="cls-2" x="415.72" y="32.12" width="2.7" height="2.7"/><rect class="cls-2" x="415.72" y="64.12" width="2.7" height="2.7"/><rect class="cls-2" x="415.72" y="32.12" width="2.7" height="2.7"/><rect class="cls-2" x="479.82" y="64.12" width="2.7" height="2.7"/><rect class="cls-2" x="447.83" y="64.12" width="2.7" height="2.7"/><polygon class="cls-1" points="484.73 34.52 483.73 34.52 482.43 34.52 482.43 34.83 479.82 34.83 479.82 32.13 482.23 32.13 482.23 15.72 474.13 15.72 474.13 31.13 449.23 31.13 447.82 31.13 447.82 14.53 447.82 9.32 447.82 4.13 447.82 1.43 418.43 1.43 418.43 4.13 415.73 4.13 415.73 1.43 386.43 1.43 386.43 4.13 385.13 4.13 385.13 32.13 386.43 32.13 386.43 34.83 385.13 34.83 385.13 64.13 386.43 64.13 386.43 66.83 385.13 66.83 385.13 84.92 390.73 84.92 390.73 76.33 414.13 76.33 414.13 84.92 418.93 84.92 418.93 81.72 438.23 81.72 438.23 84.92 484.73 84.92 484.73 34.52"/><rect class="cls-2" x="351.72" y="366.73" width="2.7" height="2.7"/><rect class="cls-2" x="287.72" y="320.32" width="2.7" height="2.7"/><rect class="cls-2" x="287.72" y="326.73" width="2.7" height="2.7"/><rect class="cls-2" x="319.72" y="366.73" width="2.7" height="2.7"/><rect class="cls-2" x="287.72" y="366.73" width="2.7" height="2.7"/><rect class="cls-2" x="287.72" y="320.32" width="2.7" height="2.7"/><rect class="cls-2" x="287.72" y="326.73" width="2.7" height="2.7"/><rect class="cls-2" x="287.72" y="366.73" width="2.7" height="2.7"/><rect class="cls-2" x="351.72" y="366.73" width="2.7" height="2.7"/><rect class="cls-2" x="319.72" y="366.73" width="2.7" height="2.7"/><rect class="cls-2" x="351.72" y="366.73" width="2.7" height="2.7"/><rect class="cls-2" x="319.72" y="366.73" width="2.7" height="2.7"/><rect class="cls-2" x="287.72" y="366.73" width="2.7" height="2.7"/><rect class="cls-2" x="287.72" y="320.32" width="2.7" height="2.7"/><rect class="cls-2" x="287.72" y="326.73" width="2.7" height="2.7"/><polygon class="cls-1" points="319.73 320.32 320.32 320.32 320.32 318.93 314.43 318.93 314.43 322.02 295.13 322.02 295.13 318.93 257.63 318.93 257.63 320.32 258.32 320.32 258.32 323.02 257.63 323.02 257.63 326.73 258.32 326.73 258.32 329.43 257.63 329.43 257.63 366.73 258.32 366.73 258.32 369.43 257.63 369.43 257.63 402.73 258.32 402.73 258.32 405.43 287.73 405.43 287.73 402.73 290.32 402.73 290.32 405.43 319.73 405.43 319.73 402.73 322.32 402.73 322.32 405.43 351.73 405.43 351.73 402.73 354.43 402.73 354.43 371.02 358.02 371.02 358.02 359.13 319.73 359.13 319.73 320.32"/><polygon class="cls-1" points="352.43 130.93 351.73 130.93 351.73 128.22 352.43 128.22 352.43 98.83 351.73 98.83 351.73 96.83 341.63 96.83 341.63 99.92 322.32 99.92 322.32 98.83 319.73 98.83 319.73 96.83 302.73 96.83 302.73 111.13 306.02 111.13 306.02 127.83 313.43 127.83 319.73 127.83 322.32 127.83 322.32 130.93 322.32 160.22 322.32 162.93 351.73 162.93 351.73 160.22 352.43 160.22 352.43 130.93"/><rect class="cls-2" x="732.72" y="288.32" width="2.7" height="2.7"/><polyline class="cls-1" points="734.13 323.02 766.23 323.02 767.92 323.02 767.92 282.82 765.23 282.82 765.23 263.63 767.92 263.63 767.92 257.82 735.42 257.82 735.42 258.52 732.73 258.52 732.73 257.82 704.42 257.82 704.42 289.73 687.42 289.73 687.42 290.52 684.73 290.52 684.73 297.02 684.73 319.93 687.42 319.93 687.42 322.63 686.02 322.63 686.02 323.02 734.13 323.02"/><polygon class="cls-1" points="159.63 98.83 159.63 96.83 153.93 96.83 153.93 99.92 134.72 99.92 134.72 96.83 130.22 96.83 130.22 98.83 127.63 98.83 127.63 96.83 98.22 96.83 98.22 98.83 96.92 98.83 96.92 128.22 98.22 128.22 98.22 130.93 96.92 130.93 96.92 160.22 98.22 160.22 98.22 162.93 127.63 162.93 127.63 160.22 128.93 160.22 128.93 130.93 127.63 130.93 127.63 128.22 128.93 128.22 130.22 128.22 130.22 129.22 159.63 129.22 159.63 128.22 160.53 128.22 160.53 98.83 159.63 98.83"/><polygon class="cls-1" points="1071.63 226.93 987.33 226.93 987.33 237.03 990.42 237.03 990.42 256.32 987.33 256.32 987.33 289.63 1020.92 289.63 1020.92 288.32 1023.63 288.32 1023.63 289.63 1038.63 289.63 1038.63 303.23 1071.63 303.23 1071.63 290.93 1068.92 290.93 1068.92 288.32 1071.63 288.32 1071.63 258.93 1068.92 258.93 1068.92 256.32 1071.63 256.32 1071.63 226.93"/><polygon class="cls-1" points="1028.22 149.82 987.33 149.82 987.33 162.93 990.42 162.93 990.42 182.13 987.33 182.13 987.33 192.22 987.33 226.32 1023.63 226.32 1068.92 226.32 1068.92 224.22 1071.63 224.22 1071.63 194.93 1068.92 194.93 1068.92 192.22 1071.63 192.22 1071.63 162.93 1068.92 162.93 1068.92 160.22 1071.63 160.22 1071.63 130.93 1068.92 130.93 1068.92 128.22 1071.63 128.22 1071.63 115.92 1039.03 115.92 1039.03 128.93 1028.22 128.93 1028.22 149.82"/><polygon class="cls-1" points="16.73 318.93 16.73 371.02 19.23 371.02 19.23 405.43 31.52 405.43 31.52 402.73 34.23 402.73 34.23 405.43 63.52 405.43 63.52 402.73 66.22 402.73 66.22 405.43 95.63 405.43 95.63 318.93 95.63 322.02 76.33 322.02 76.33 318.93 16.73 318.93"/><polygon class="cls-1" points="96.22 369.43 96.22 402.73 98.22 402.73 98.22 405.43 127.63 405.43 127.63 402.73 130.22 402.73 130.22 405.43 159.63 405.43 159.63 402.73 160.53 402.73 160.53 318.93 149.53 318.93 149.53 322.02 140.32 322.02 130.22 322.02 130.22 318.93 96.22 318.93 96.22 369.43"/><polygon class="cls-1" points="226.32 98.83 223.63 98.83 223.63 96.83 218.13 96.83 218.13 99.92 198.82 99.92 198.82 96.83 194.32 96.83 194.32 98.83 191.63 98.83 191.63 96.83 162.32 96.83 162.32 98.83 161.32 98.83 161.32 128.22 162.32 128.22 162.32 130.93 159.63 130.93 159.63 130.03 130.22 129.93 130.22 130.93 129.53 130.93 129.53 160.22 130.22 160.22 130.22 162.93 159.63 162.93 159.63 160.22 162.32 160.22 162.32 162.22 191.63 162.22 191.63 160.22 194.32 160.22 194.32 162.22 223.63 162.22 223.63 160.22 226.32 160.22 226.32 130.93 223.63 130.93 223.63 128.22 226.32 128.22 226.32 98.83"/><polygon class="cls-1" points="577.23 4.13 574.52 4.13 574.52 1.43 546.52 1.43 546.52 4.13 543.83 4.13 543.83 1.43 514.52 1.43 514.52 4.13 511.82 4.13 511.82 1.43 499.32 1.43 499.32 34.52 496.73 34.52 496.73 84.92 516.83 84.92 516.83 81.72 536.02 81.72 536.02 84.92 543.83 84.92 543.83 32.13 577.23 32.13 577.23 4.13"/><polygon class="cls-1" points="240.13 50.83 256.73 50.83 256.73 84.92 276.43 84.92 276.43 81.72 295.73 81.72 295.73 84.92 295.73 32.13 334.93 32.13 334.93 1.43 240.22 1.43 240.13 50.83"/><polygon class="cls-1" points="357.73 272.93 337.73 272.93 337.73 256.32 322.32 256.32 322.32 258.93 319.73 258.93 319.73 256.93 290.32 256.93 290.32 258.93 289.02 258.93 289.02 288.32 290.32 288.32 290.32 290.93 289.02 290.93 289.02 306.82 332.43 306.82 332.43 303.82 351.73 303.82 351.73 306.82 357.73 306.82 357.73 272.93"/><polygon class="cls-1" points="353.32 130.93 353.32 160.22 354.43 160.22 354.43 162.93 383.73 162.93 383.73 160.22 384.43 160.22 384.43 130.93 383.73 130.93 383.73 128.22 386.43 128.22 386.43 128.93 416.82 128.93 416.82 98.83 415.73 98.83 415.73 96.83 410.13 96.83 410.13 99.92 390.93 99.92 390.93 96.83 386.43 96.83 386.43 98.83 384.02 98.83 384.02 102.22 360.73 102.22 360.73 96.83 354.43 96.83 354.43 98.83 353.32 98.83 353.32 128.22 354.43 128.22 354.43 130.93 353.32 130.93"/><polygon class="cls-1" points="385.32 130.93 385.32 160.22 386.43 160.22 386.43 162.93 415.73 162.93 415.73 160.22 418.43 160.22 418.43 162.22 447.82 162.22 447.82 160.22 450.43 160.22 450.43 162.22 479.82 162.22 479.82 160.22 482.23 160.22 482.23 130.93 479.82 130.93 479.82 128.22 482.23 128.22 482.23 103.63 450.43 103.63 450.43 98.83 447.82 98.83 447.82 99.92 428.52 99.92 428.52 96.83 418.43 96.83 418.43 98.83 417.32 98.83 417.32 129.93 386.43 129.93 386.43 130.93 385.32 130.93"/><polygon class="cls-1" points="161.32 402.73 162.32 402.73 162.32 405.43 191.63 405.43 191.63 402.73 194.32 402.73 194.32 405.43 206.82 405.43 206.82 371.02 209.43 371.02 209.43 318.93 181.53 318.93 181.53 322.02 162.32 322.02 162.32 318.93 161.32 318.93 161.32 402.73"/><polygon class="cls-1" points="684.73 324.13 684.73 419.02 763.92 419.02 763.92 384.63 767.92 384.63 767.92 353.13 765.23 353.13 765.23 333.93 767.92 333.93 767.92 324.13 684.73 324.13"/><polygon class="cls-1" points="684.73 0.13 684.73 97.83 767.92 97.83 767.92 85.03 765.23 85.03 765.23 65.72 767.92 65.72 767.92 34.52 763.92 34.52 763.92 0.13 684.73 0.13"/><polygon class="cls-1" points="974.83 0.13 974.83 78.33 980.42 78.33 980.42 83.42 986.13 83.42 986.13 80.72 1005.33 80.72 1005.33 83.42 1071.63 83.42 1071.63 0.13 974.83 0.13"/><polygon class="cls-1" points="910.02 0.13 910.02 47.63 925.42 47.63 925.42 60.92 910.02 60.92 910.23 83.42 922.73 83.42 922.73 80.72 941.92 80.72 941.92 83.42 974.23 83.42 974.23 0.13 910.02 0.13"/><polygon class="cls-1" points="793.63 0.13 793.63 48.73 780.73 48.73 780.73 83.42 796.23 83.42 796.23 80.72 815.42 80.72 815.42 83.42 895.23 83.42 895.42 34.52 879.23 34.52 879.23 0.13 793.63 0.13"/><polygon class="cls-1" points="793.83 419.02 879.23 419.02 879.23 384.63 895.63 384.63 895.63 335.13 814.63 335.13 814.63 338.23 795.33 338.23 795.33 335.13 792.83 335.13 792.83 341.13 780.73 341.13 780.73 370.52 793.83 370.52 793.83 419.02"/><polygon class="cls-1" points="877.83 323.02 877.83 256.32 831.42 256.32 831.42 258.93 780.73 258.93 780.73 323.02 845.73 323.02 845.73 320.02 864.92 320.02 864.92 323.02 877.83 323.02"/><polygon class="cls-1" points="878.52 323.02 892.02 323.02 892.02 320.02 911.23 320.02 911.23 323.02 974.92 323.02 974.92 258.93 924.83 258.93 924.83 256.32 878.52 256.32 878.52 323.02"/><polygon class="cls-1" points="878.52 96.22 878.52 162.93 924.83 162.93 924.83 160.22 975.52 160.22 975.52 96.22 960.13 96.22 960.13 98.92 940.73 98.92 940.73 96.22 878.52 96.22"/><polygon class="cls-1" points="780.73 160.22 831.42 160.22 831.42 162.93 877.83 162.93 877.83 96.22 864.02 96.22 864.02 98.92 844.73 98.92 844.73 96.22 809.02 96.22 809.02 103.13 780.73 103.13 780.73 160.22"/><line class="cls-1" x1="164.53" y1="81.72" x2="183.83" y2="81.72"/><line class="cls-1" x1="164.53" y1="85.52" x2="164.53" y2="81.72"/><line class="cls-1" x1="125.62" y1="81.72" x2="106.33" y2="81.72"/><line class="cls-1" x1="125.62" y1="85.52" x2="125.62" y2="81.72"/><line class="cls-1" x1="106.33" y1="81.72" x2="106.33" y2="85.52"/><line class="cls-1" x1="159.62" y1="162.22" x2="226.33" y2="162.22"/><rect class="cls-2" x="1020.92" y="160.22" width="2.7" height="2.7"/><rect class="cls-2" x="1020.92" y="256.32" width="2.7" height="2.7"/><rect class="cls-2" x="191.62" y="366.73" width="2.7" height="2.7"/><rect class="cls-2" x="448.33" y="128.22" width="2.7" height="2.7"/><rect class="cls-2" x="63.53" y="366.73" width="2.7" height="2.7"/><rect class="cls-2" x="31.53" y="366.73" width="2.7" height="2.7"/><rect class="cls-2" x="191.62" y="366.73" width="2.7" height="2.7"/><line class="cls-3" x1="32.92" y1="31.62" x2="32.92" y2="35.32"/><line class="cls-3" x1="31.03" y1="33.52" x2="34.72" y2="33.52"/><line class="cls-3" x1="96.92" y1="31.62" x2="96.92" y2="35.32"/><line class="cls-3" x1="95.03" y1="33.52" x2="98.83" y2="33.52"/><line class="cls-3" x1="160.92" y1="31.62" x2="160.92" y2="35.32"/><line class="cls-3" x1="159.12" y1="33.52" x2="162.83" y2="33.52"/><line class="cls-3" x1="96.92" y1="63.62" x2="96.92" y2="67.33"/><line class="cls-3" x1="95.03" y1="65.52" x2="98.83" y2="65.52"/><line class="cls-3" x1="1022.22" y1="31.62" x2="1022.22" y2="35.32"/><line class="cls-3" x1="1020.42" y1="33.52" x2="1024.13" y2="33.52"/><line class="cls-3" x1="1022.22" y1="63.62" x2="1022.22" y2="67.33"/><line class="cls-3" x1="1020.42" y1="65.52" x2="1024.13" y2="65.52"/><line class="cls-3" x1="926.22" y1="31.62" x2="926.22" y2="35.32"/><line class="cls-3" x1="924.32" y1="33.52" x2="928.02" y2="33.52"/><line class="cls-3" x1="926.22" y1="63.62" x2="926.22" y2="67.33"/><line class="cls-3" x1="924.32" y1="65.52" x2="928.02" y2="65.52"/><line class="cls-3" x1="878.13" y1="63.62" x2="878.13" y2="67.33"/><line class="cls-3" x1="876.32" y1="65.52" x2="880.02" y2="65.52"/><line class="cls-3" x1="830.13" y1="31.62" x2="830.13" y2="35.32"/><line class="cls-3" x1="828.22" y1="33.52" x2="832.02" y2="33.52"/><line class="cls-3" x1="830.13" y1="63.62" x2="830.13" y2="67.33"/><line class="cls-3" x1="828.22" y1="65.52" x2="832.02" y2="65.52"/><line class="cls-3" x1="734.13" y1="31.62" x2="734.13" y2="35.32"/><line class="cls-3" x1="732.22" y1="33.52" x2="735.93" y2="33.52"/><line class="cls-3" x1="734.13" y1="63.62" x2="734.13" y2="67.33"/><line class="cls-3" x1="732.22" y1="65.52" x2="735.93" y2="65.52"/><line class="cls-3" x1="1022.22" y1="159.72" x2="1022.22" y2="163.42"/><line class="cls-3" x1="1020.42" y1="161.52" x2="1024.13" y2="161.52"/><line class="cls-3" x1="1022.22" y1="191.72" x2="1022.22" y2="195.42"/><line class="cls-3" x1="1020.42" y1="193.63" x2="1024.13" y2="193.63"/><line class="cls-3" x1="1022.22" y1="255.73" x2="1022.22" y2="259.52"/><line class="cls-3" x1="1020.42" y1="257.63" x2="1024.13" y2="257.63"/><line class="cls-3" x1="926.22" y1="127.63" x2="926.22" y2="131.42"/><line class="cls-3" x1="924.32" y1="129.52" x2="928.02" y2="129.52"/><line class="cls-3" x1="926.22" y1="287.73" x2="926.22" y2="291.52"/><line class="cls-3" x1="924.32" y1="289.63" x2="928.02" y2="289.63"/><line class="cls-3" x1="878.13" y1="351.82" x2="878.13" y2="355.52"/><line class="cls-3" x1="876.32" y1="353.63" x2="880.02" y2="353.63"/><line class="cls-3" x1="830.13" y1="127.63" x2="830.13" y2="131.42"/><line class="cls-3" x1="828.22" y1="129.52" x2="832.02" y2="129.52"/><line class="cls-3" x1="830.13" y1="287.73" x2="830.13" y2="291.52"/><line class="cls-3" x1="828.22" y1="289.63" x2="832.02" y2="289.63"/><line class="cls-3" x1="830.13" y1="351.82" x2="830.13" y2="355.52"/><line class="cls-3" x1="828.22" y1="353.63" x2="832.02" y2="353.63"/><line class="cls-3" x1="830.13" y1="383.82" x2="830.13" y2="387.52"/><line class="cls-3" x1="828.22" y1="385.73" x2="832.02" y2="385.73"/><line class="cls-3" x1="734.13" y1="351.82" x2="734.13" y2="355.52"/><line class="cls-3" x1="732.22" y1="353.63" x2="735.93" y2="353.63"/><line class="cls-3" x1="734.13" y1="383.82" x2="734.13" y2="387.52"/><line class="cls-3" x1="732.22" y1="385.73" x2="735.93" y2="385.73"/><line class="cls-3" x1="32.92" y1="63.62" x2="32.92" y2="67.33"/><line class="cls-3" x1="31.03" y1="65.52" x2="34.72" y2="65.52"/><line class="cls-3" x1="160.92" y1="63.62" x2="160.92" y2="67.33"/><line class="cls-3" x1="159.12" y1="65.52" x2="162.83" y2="65.52"/><line class="cls-3" x1="192.92" y1="31.62" x2="192.92" y2="35.32"/><line class="cls-3" x1="191.12" y1="33.52" x2="194.83" y2="33.52"/><line class="cls-3" x1="192.92" y1="127.63" x2="192.92" y2="131.42"/><line class="cls-3" x1="191.12" y1="129.52" x2="194.83" y2="129.52"/><line class="cls-3" x1="192.92" y1="63.62" x2="192.92" y2="67.33"/><line class="cls-3" x1="191.12" y1="65.52" x2="194.83" y2="65.52"/><line class="cls-3" x1="289.02" y1="31.62" x2="289.02" y2="35.32"/><line class="cls-3" x1="287.12" y1="33.52" x2="290.93" y2="33.52"/><line class="cls-3" x1="289.02" y1="63.62" x2="289.02" y2="67.33"/><line class="cls-3" x1="287.12" y1="65.52" x2="290.93" y2="65.52"/><line class="cls-3" x1="417.12" y1="31.62" x2="417.12" y2="35.32"/><line class="cls-3" x1="415.22" y1="33.52" x2="418.93" y2="33.52"/><line class="cls-3" x1="417.12" y1="63.62" x2="417.12" y2="67.33"/><line class="cls-3" x1="415.22" y1="65.52" x2="418.93" y2="65.52"/><line class="cls-3" x1="449.12" y1="31.62" x2="449.12" y2="35.32"/><line class="cls-3" x1="447.22" y1="33.52" x2="451.02" y2="33.52"/><line class="cls-3" x1="449.12" y1="63.62" x2="449.12" y2="67.33"/><line class="cls-3" x1="447.22" y1="65.52" x2="451.02" y2="65.52"/><line class="cls-3" x1="513.13" y1="31.62" x2="513.13" y2="35.32"/><line class="cls-3" x1="511.32" y1="33.52" x2="515.02" y2="33.52"/><line class="cls-3" x1="321.02" y1="287.73" x2="321.02" y2="291.52"/><line class="cls-3" x1="319.12" y1="289.63" x2="322.93" y2="289.63"/><line class="cls-3" x1="353.02" y1="287.73" x2="353.02" y2="291.52"/><line class="cls-3" x1="351.22" y1="289.63" x2="354.93" y2="289.63"/><line class="cls-3" x1="32.92" y1="319.82" x2="32.92" y2="323.52"/><line class="cls-3" x1="31.03" y1="321.63" x2="34.72" y2="321.63"/><line class="cls-3" x1="64.92" y1="319.82" x2="64.92" y2="323.52"/><line class="cls-3" x1="63.03" y1="321.63" x2="66.72" y2="321.63"/><line class="cls-3" x1="192.92" y1="319.82" x2="192.92" y2="323.52"/><line class="cls-3" x1="191.12" y1="321.63" x2="194.83" y2="321.63"/><line class="cls-3" x1="289.02" y1="319.82" x2="289.02" y2="323.52"/><line class="cls-3" x1="287.12" y1="321.63" x2="290.93" y2="321.63"/><line class="cls-3" x1="385.12" y1="319.82" x2="385.12" y2="323.52"/><line class="cls-3" x1="32.92" y1="326.23" x2="32.92" y2="329.92"/><line class="cls-3" x1="31.03" y1="328.02" x2="34.72" y2="328.02"/><line class="cls-3" x1="64.92" y1="326.23" x2="64.92" y2="329.92"/><line class="cls-3" x1="63.03" y1="328.02" x2="66.72" y2="328.02"/><line class="cls-3" x1="128.92" y1="326.23" x2="128.92" y2="329.92"/><line class="cls-3" x1="127.03" y1="328.02" x2="130.83" y2="328.02"/><line class="cls-3" x1="192.92" y1="326.23" x2="192.92" y2="329.92"/><line class="cls-3" x1="191.12" y1="328.02" x2="194.83" y2="328.02"/><line class="cls-3" x1="289.02" y1="326.23" x2="289.02" y2="329.92"/><line class="cls-3" x1="287.12" y1="328.02" x2="290.93" y2="328.02"/><line class="cls-3" x1="385.12" y1="326.23" x2="385.12" y2="329.92"/><line class="cls-3" x1="383.22" y1="328.02" x2="386.93" y2="328.02"/><line class="cls-3" x1="32.92" y1="366.23" x2="32.92" y2="369.92"/><line class="cls-3" x1="31.03" y1="368.13" x2="34.72" y2="368.13"/><line class="cls-3" x1="64.92" y1="366.23" x2="64.92" y2="369.92"/><line class="cls-3" x1="63.03" y1="368.13" x2="66.72" y2="368.13"/><line class="cls-3" x1="128.92" y1="366.23" x2="128.92" y2="369.92"/><line class="cls-3" x1="127.03" y1="368.13" x2="130.83" y2="368.13"/><line class="cls-3" x1="192.92" y1="366.23" x2="192.92" y2="369.92"/><line class="cls-3" x1="191.12" y1="368.13" x2="194.83" y2="368.13"/><line class="cls-3" x1="289.02" y1="366.23" x2="289.02" y2="369.92"/><line class="cls-3" x1="287.12" y1="368.13" x2="290.93" y2="368.13"/><line class="cls-3" x1="321.02" y1="366.23" x2="321.02" y2="369.92"/><line class="cls-3" x1="319.12" y1="368.13" x2="322.93" y2="368.13"/><line class="cls-3" x1="353.02" y1="366.23" x2="353.02" y2="369.92"/><line class="cls-3" x1="351.22" y1="368.13" x2="354.93" y2="368.13"/><line class="cls-3" x1="385.12" y1="366.23" x2="385.12" y2="369.92"/><line class="cls-3" x1="383.22" y1="368.13" x2="386.93" y2="368.13"/><line class="cls-3" x1="257.02" y1="31.62" x2="257.02" y2="35.32"/><line class="cls-3" x1="255.12" y1="33.52" x2="258.83" y2="33.52"/><line class="cls-3" x1="513.13" y1="63.62" x2="513.13" y2="67.33"/><line class="cls-3" x1="511.32" y1="65.52" x2="515.02" y2="65.52"/><line class="cls-3" x1="481.13" y1="63.62" x2="481.13" y2="67.33"/><line class="cls-3" x1="479.22" y1="65.52" x2="483.02" y2="65.52"/><line class="cls-3" x1="734.13" y1="287.73" x2="734.13" y2="291.52"/><line class="cls-3" x1="732.22" y1="289.63" x2="735.93" y2="289.63"/><line class="cls-3" x1="449.62" y1="127.63" x2="449.62" y2="131.42"/><line class="cls-3" x1="447.83" y1="129.52" x2="451.52" y2="129.52"/><line class="cls-3" x1="385.12" y1="319.82" x2="385.12" y2="323.52"/><line class="cls-3" x1="383.22" y1="321.63" x2="386.93" y2="321.63"/><rect class="cls-2" x="31.53" y="32.12" width="2.7" height="2.7"/><rect class="cls-2" x="95.62" y="32.12" width="2.7" height="2.7"/><rect class="cls-2" x="159.62" y="32.12" width="2.7" height="2.7"/><rect class="cls-2" x="95.62" y="64.12" width="2.7" height="2.7"/><rect class="cls-2" x="1020.92" y="32.12" width="2.7" height="2.7"/><rect class="cls-2" x="1020.92" y="64.12" width="2.7" height="2.7"/><rect class="cls-2" x="924.82" y="32.12" width="2.7" height="2.7"/><rect class="cls-2" x="924.82" y="64.12" width="2.7" height="2.7"/><rect class="cls-2" x="876.82" y="64.12" width="2.7" height="2.7"/><rect class="cls-2" x="828.82" y="32.12" width="2.7" height="2.7"/><rect class="cls-2" x="828.82" y="64.12" width="2.7" height="2.7"/><rect class="cls-2" x="732.72" y="32.12" width="2.7" height="2.7"/><rect class="cls-2" x="732.72" y="64.12" width="2.7" height="2.7"/><rect class="cls-2" x="1020.92" y="160.22" width="2.7" height="2.7"/><rect class="cls-2" x="1020.92" y="192.22" width="2.7" height="2.7"/><rect class="cls-2" x="1020.92" y="256.32" width="2.7" height="2.7"/><rect class="cls-2" x="924.82" y="128.22" width="2.7" height="2.7"/><rect class="cls-2" x="924.82" y="288.32" width="2.7" height="2.7"/><rect class="cls-2" x="876.82" y="352.32" width="2.7" height="2.7"/><rect class="cls-2" x="828.82" y="128.22" width="2.7" height="2.7"/><rect class="cls-2" x="828.82" y="288.32" width="2.7" height="2.7"/><rect class="cls-2" x="828.82" y="352.32" width="2.7" height="2.7"/><rect class="cls-2" x="828.82" y="384.32" width="2.7" height="2.7"/><rect class="cls-2" x="732.72" y="352.32" width="2.7" height="2.7"/><rect class="cls-2" x="732.72" y="384.32" width="2.7" height="2.7"/><rect class="cls-2" x="31.53" y="64.12" width="2.7" height="2.7"/><rect class="cls-2" x="159.62" y="64.12" width="2.7" height="2.7"/><rect class="cls-2" x="191.62" y="32.12" width="2.7" height="2.7"/><rect class="cls-2" x="191.62" y="128.22" width="2.7" height="2.7"/><rect class="cls-2" x="191.62" y="64.12" width="2.7" height="2.7"/><rect class="cls-2" x="287.72" y="32.12" width="2.7" height="2.7"/><rect class="cls-2" x="287.72" y="64.12" width="2.7" height="2.7"/><rect class="cls-2" x="415.72" y="32.12" width="2.7" height="2.7"/><rect class="cls-2" x="415.72" y="64.12" width="2.7" height="2.7"/><rect class="cls-2" x="447.83" y="32.12" width="2.7" height="2.7"/><rect class="cls-2" x="447.83" y="64.12" width="2.7" height="2.7"/><rect class="cls-2" x="511.82" y="32.12" width="2.7" height="2.7"/><rect class="cls-2" x="319.72" y="288.32" width="2.7" height="2.7"/><rect class="cls-2" x="351.72" y="288.32" width="2.7" height="2.7"/><rect class="cls-2" x="31.53" y="320.32" width="2.7" height="2.7"/><rect class="cls-2" x="63.53" y="320.32" width="2.7" height="2.7"/><rect class="cls-2" x="191.62" y="320.32" width="2.7" height="2.7"/><rect class="cls-2" x="287.72" y="320.32" width="2.7" height="2.7"/><rect class="cls-2" x="383.72" y="320.32" width="2.7" height="2.7"/><rect class="cls-2" x="31.53" y="326.73" width="2.7" height="2.7"/><rect class="cls-2" x="63.53" y="326.73" width="2.7" height="2.7"/><rect class="cls-2" x="127.62" y="326.73" width="2.7" height="2.7"/><rect class="cls-2" x="191.62" y="326.73" width="2.7" height="2.7"/><rect class="cls-2" x="287.72" y="326.73" width="2.7" height="2.7"/><rect class="cls-2" x="383.72" y="326.73" width="2.7" height="2.7"/><rect class="cls-2" x="31.53" y="366.73" width="2.7" height="2.7"/><rect class="cls-2" x="63.53" y="366.73" width="2.7" height="2.7"/><rect class="cls-2" x="127.62" y="366.73" width="2.7" height="2.7"/><rect class="cls-2" x="191.62" y="366.73" width="2.7" height="2.7"/><rect class="cls-2" x="287.72" y="366.73" width="2.7" height="2.7"/><rect class="cls-2" x="319.72" y="366.73" width="2.7" height="2.7"/><rect class="cls-2" x="351.72" y="366.73" width="2.7" height="2.7"/><rect class="cls-2" x="383.72" y="366.73" width="2.7" height="2.7"/><rect class="cls-2" x="255.62" y="32.12" width="2.7" height="2.7"/><rect class="cls-2" x="511.82" y="64.12" width="2.7" height="2.7"/><rect class="cls-2" x="479.82" y="64.12" width="2.7" height="2.7"/><rect class="cls-2" x="732.72" y="288.32" width="2.7" height="2.7"/><rect class="cls-1" x="415.72" y="128.22" width="2.7" height="2.7"/><rect class="cls-2" x="448.33" y="128.22" width="2.7" height="2.7"/><rect class="cls-2" x="383.72" y="320.32" width="2.7" height="2.7"/><rect class="cls-2" x="732.72" y="288.32" width="2.7" height="2.7"/><line class="cls-1" x1="96.22" y1="162.92" x2="128.92" y2="162.92"/><rect class="cls-2" x="1020.92" y="64.12" width="2.7" height="2.7"/><rect class="cls-2" x="1020.92" y="32.12" width="2.7" height="2.7"/><rect class="cls-2" x="191.62" y="64.12" width="2.7" height="2.7"/><rect class="cls-2" x="191.62" y="32.12" width="2.7" height="2.7"/><rect class="cls-2" x="159.62" y="64.12" width="2.7" height="2.7"/><rect class="cls-2" x="159.62" y="32.12" width="2.7" height="2.7"/><rect class="cls-2" x="95.62" y="64.12" width="2.7" height="2.7"/><rect class="cls-2" x="95.62" y="32.12" width="2.7" height="2.7"/><rect class="cls-2" x="31.53" y="64.12" width="2.7" height="2.7"/><rect class="cls-2" x="31.53" y="32.12" width="2.7" height="2.7"/><polyline class="cls-1" points="183.22 84.92 183.82 84.92 183.82 78.42 201.43 78.42 201.43 73.22 206.82 73.22 206.82 1.43 194.32 1.43 194.32 4.13 191.63 4.13 191.63 1.43 162.32 1.43 162.32 4.13 159.63 4.13 159.63 1.43 130.22 1.43 130.22 4.13 129.53 4.13 129.53 32.13 130.22 32.13 130.22 34.83 129.53 34.83 129.53 64.13 130.22 64.13 130.22 66.83 129.53 66.83 129.53 84.92 165.13 84.92"/><polyline class="cls-1" points="125.03 84.92 128.93 84.92 128.93 66.83 127.63 66.83 127.63 64.13 128.93 64.13 128.93 34.83 127.63 34.83 127.63 32.13 128.93 32.13 128.93 4.13 127.63 4.13 127.63 1.43 98.22 1.43 98.22 4.13 95.63 4.13 95.63 1.43 66.22 1.43 66.22 4.13 64.92 4.13 64.92 32.13 66.22 32.13 66.22 34.83 64.92 34.83 64.92 64.13 66.22 64.13 66.22 66.83 64.92 66.83 64.92 84.92 69.92 84.92 69.92 79.53 92.92 79.53 92.92 84.92 106.92 84.92"/><polygon class="cls-1" points="39.42 84.92 0.13 84.92 0.13 66.83 2.23 66.83 2.23 64.13 0.13 64.13 0.13 34.83 2.23 34.83 2.23 34.52 19.23 34.52 19.23 1.43 31.52 1.43 31.52 4.13 34.23 4.13 34.23 1.43 63.52 1.43 63.52 4.13 64.22 4.13 64.22 32.13 63.52 32.13 63.52 34.83 64.22 34.83 64.22 64.13 63.52 64.13 63.52 66.83 64.22 66.83 64.22 84.92 57.52 84.92 57.52 82.33 39.42 82.33 39.42 84.92"/><polyline class="cls-1" points="238.63 84.92 238.63 79.53 241.82 79.53 241.82 84.92"/><rect class="cls-2" x="31.53" y="64.12" width="2.7" height="2.7"/><rect class="cls-2" x="31.53" y="32.12" width="2.7" height="2.7"/><rect class="cls-2" x="191.62" y="64.12" width="2.7" height="2.7"/><rect class="cls-2" x="191.62" y="32.12" width="2.7" height="2.7"/><rect class="cls-2" x="159.62" y="64.12" width="2.7" height="2.7"/><rect class="cls-2" x="159.62" y="32.12" width="2.7" height="2.7"/><rect class="cls-2" x="287.72" y="320.32" width="2.7" height="2.7"/><rect class="cls-2" x="287.72" y="326.73" width="2.7" height="2.7"/><rect class="cls-2" x="191.62" y="128.22" width="2.7" height="2.7"/><rect class="cls-2" x="351.72" y="288.32" width="2.7" height="2.7"/><rect class="cls-2" x="319.72" y="288.32" width="2.7" height="2.7"/><rect class="cls-2" x="191.62" y="326.73" width="2.7" height="2.7"/><rect class="cls-2" x="383.72" y="320.32" width="2.7" height="2.7"/><rect class="cls-2" x="383.72" y="326.73" width="2.7" height="2.7"/><rect class="cls-2" x="63.53" y="320.32" width="2.7" height="2.7"/><rect class="cls-2" x="63.53" y="326.73" width="2.7" height="2.7"/><rect class="cls-2" x="31.53" y="320.32" width="2.7" height="2.7"/><rect class="cls-2" x="31.53" y="326.73" width="2.7" height="2.7"/><rect class="cls-2" x="191.62" y="320.32" width="2.7" height="2.7"/><rect class="cls-2" x="191.62" y="326.73" width="2.7" height="2.7"/><rect class="cls-1" x="220.93" y="64.83" width="35.2" height="20.1"/><line class="cls-1" x1="165.12" y1="84.93" x2="125.03" y2="84.93"/><rect class="cls-2" x="383.72" y="320.32" width="2.7" height="2.7"/><rect class="cls-2" x="383.72" y="320.32" width="2.7" height="2.7"/><rect class="cls-2" x="383.72" y="326.73" width="2.7" height="2.7"/><rect class="cls-2" x="383.72" y="366.73" width="2.7" height="2.7"/><polygon class="cls-1" points="415.73 320.93 415.73 320.32 415.73 318.93 405.13 318.93 394.93 318.93 389.63 318.93 386.93 318.93 375.43 318.93 375.43 341.73 375.43 346.13 370.02 346.13 370.02 371.02 371.43 371.02 371.43 405.43 383.73 405.43 383.73 402.73 386.43 402.73 386.43 405.43 415.73 405.43 415.73 402.73 415.73 320.93"/></svg>