<svg id="_1_floor" data-name="1 floor" xmlns="http://www.w3.org/2000/svg" viewBox="0 0 1071 418.6"><defs><style>.cls-1{fill:#ffd899;opacity:0.4;isolation:isolate;}.cls-2{fill:#efefef;}</style></defs><title>plans_fills</title><polygon class="cls-1" points="76.2 321.7 76.2 318.6 16.6 318.6 16.6 370.6 19.1 370.6 19.1 405 31.4 405 31.4 402.3 34.1 402.3 34.1 405 63.4 405 63.4 402.4 66.1 402.4 66.1 405 95.4 405 95.4 321.7 76.2 321.7"/><polygon class="cls-1" points="130.1 318.6 96.1 318.6 96.1 319.8 98.1 319.8 98.1 322.6 96.1 322.6 96.1 326.4 97.9 326.4 97.9 329 96.1 329 96.1 366.4 97.9 366.4 97.9 369 96.1 369 96.1 402.4 98.1 402.4 98.1 405 127.4 405 127.4 402.4 130.1 402.4 130.1 405 159.4 405 159.4 402.4 160.3 402.4 160.3 369 159.4 369 159.4 366.4 160.3 366.4 160.3 329 159.4 329 159.4 326.4 160.3 326.4 160.3 322.6 159.4 322.6 159.4 320 160.3 320 160.3 318.6 149.3 318.6 149.3 321.7 130.1 321.7 130.1 322.7 127.4 322.7 127.4 320 130.1 320 130.1 318.6"/><polygon class="cls-1" points="209.2 318.6 181.3 318.6 181.3 321.7 162.1 321.7 162.1 322.6 161.1 322.6 161.1 326.4 162.1 326.4 162.1 329 161.1 329 161.1 366.4 162.1 366.4 162.1 369 161.1 369 161.1 402.4 162.1 402.4 162.1 405 191.3 405 191.3 402.4 194.1 402.4 194.1 405 206.6 405 206.6 370.6 209.2 370.6 209.2 318.6"/><polygon class="cls-1" points="320.1 318.6 314.1 318.6 314.1 321.7 294.9 321.7 294.9 318.6 257.4 318.6 257.4 320 258.1 320 258.1 322.6 257.4 322.6 257.4 326.4 258.2 326.4 258.2 329 257.4 329 257.4 366.4 258.1 366.4 258.1 369 257.4 369 257.4 402.4 258.1 402.4 258.1 405 287.4 405 287.4 402.4 290.1 402.4 290.1 405 319.4 405 319.4 402.4 322.1 402.4 322.1 405 351.4 405 351.4 402.4 354.1 402.4 354.1 370.6 357.7 370.6 357.7 358.8 319.4 358.8 319.4 320 320.1 320 320.1 318.6"/><polygon class="cls-1" points="415.4 318.6 375.1 318.6 375.1 345.7 369.7 345.7 369.7 370.6 371.2 370.6 371.2 405 383.4 405 383.4 402.4 386.1 402.4 386.1 405 415.4 405 415.4 318.6"/><polygon class="cls-2" points="514.4 224.6 543.4 224.6 543.4 226.6 546.1 226.6 546.1 224.6 574.1 224.6 574.1 226.5 576.8 226.5 576.8 256 574.1 256 574.1 258.6 576.8 258.6 576.8 288 574.1 288 574.1 290.6 576.8 290.6 576.8 319.7 574.1 319.7 574.1 322.6 576.8 322.6 576.8 326.4 574.1 326.4 574.1 329 576.8 329 576.8 366.4 574.1 366.4 574.1 369 576.8 369 576.8 402.4 574.1 402.4 574.1 405 546.1 405 546.1 402.4 543.4 402.4 543.4 405 514.1 405 514.1 402.4 511.4 402.4 511.4 405 499.2 405 499.2 370.6 482.1 370.6 482.1 402.4 479.4 402.4 479.4 405 450.1 405 450.1 402.4 447.4 402.4 447.4 405 418.1 405 418.1 402.4 416.1 402.4 416.1 369 418.1 369 418.1 366.4 416.1 366.4 416.1 329 418 329 418 326.4 416.1 326.4 416.1 322.6 418.1 322.6 418.1 320 416.1 320 416.1 318.6 448.8 318.6 448.8 320 450.3 320 450.3 258.6 483.2 258.6 483.2 224.6 511.4 224.6 511.4 226.6 514.4 226.6 514.4 224.6"/><polygon class="cls-1" points="767.5 323.8 684.3 323.8 684.3 352 686.9 352 686.9 354.6 684.3 354.6 684.3 384 686.9 384 686.9 386.6 684.3 386.6 684.3 416 686.9 416 686.9 418.6 732.3 418.6 732.3 416 734.9 416 734.9 418.6 763.5 418.6 763.5 384.2 767.5 384.2 767.5 352.8 764.8 352.8 764.8 333.5 767.5 333.5 767.5 323.8"/><path class="cls-1" d="M732.5,258.6h28.3v.7h2.7v-.7H796v5.7h-2.7v19.2h2.6v40.1H714.1s-.1-.4,0-.4h1.4v-2.7h-2.7V291.2h2.7v-.8h17.1V258.6Z" transform="translate(-28.5 -0.7)"/><polygon class="cls-1" points="814.1 334.7 814.1 337.9 794.8 337.9 794.8 334.7 792.3 334.7 792.3 340.8 780.3 340.8 780.3 352 782.9 352 782.9 354.6 780.3 354.6 780.3 370.1 793.3 370.1 793.3 418.6 828.3 418.6 828.3 416 830.9 416 830.9 418.6 876.3 418.6 876.3 416 878.7 416 878.7 386.6 876.3 386.6 876.3 384 878.9 384 878.9 384.2 895.1 384.2 895.1 334.7 814.1 334.7"/><polygon class="cls-1" points="1071 226.6 986.7 226.6 986.7 236.7 989.8 236.7 989.8 256 986.7 256 986.7 289.3 1020.3 289.3 1020.3 288 1022.9 288 1022.9 289.3 1038 289.3 1038 302.9 1071 302.9 1071 290.5 1068.3 290.5 1068.3 288 1071 288 1071 258.6 1068.3 258.6 1068.3 256 1071 256 1071 226.6"/><polygon class="cls-1" points="1071 115.7 1038.4 115.7 1038.4 128.6 1027.6 128.6 1027.6 149.6 986.7 149.6 986.7 162.6 989.8 162.6 989.8 181.9 986.7 181.9 986.7 226 1020.3 226 1020.3 224 1022.9 224 1022.9 226 1068.3 226 1068.3 224 1071 224 1071 194.6 1068.3 194.6 1068.3 191.9 1071 191.9 1071 162.6 1068.2 162.6 1068.2 160 1071 160 1071 130.6 1068.3 130.6 1068.3 128 1071 128 1071 115.7"/><polygon class="cls-1" points="1068.3 0 1022.9 0 1022.9 2.6 1020.3 2.6 1020.3 0 974.9 0 974.9 2.6 974.3 2.6 974.3 32 974.9 32 974.9 34.6 974.3 34.6 974.3 64 974.9 64 974.9 66.6 974.3 66.6 974.3 78.1 979.9 78.1 979.9 83.2 985.5 83.2 985.5 80.4 1004.7 80.4 1004.7 83.2 1071 83.2 1071 66.6 1068.3 66.6 1068.3 64 1071 64 1071 34.6 1068.3 34.6 1068.3 32 1071 32 1071 2.6 1068.2 2.6 1068.3 0"/><polygon class="cls-1" points="972.3 0 926.9 0 926.9 2.6 924.3 2.6 924.3 0 909.6 0 909.6 47.4 924.8 47.4 924.8 60.8 909.6 60.8 909.6 83.2 922.1 83.2 922.1 80.5 941.4 80.5 941.4 83.2 973.5 83.2 973.5 66.6 972.3 66.6 972.3 64 973.5 64 973.5 34.6 972.3 34.6 972.3 31.9 973.6 31.9 973.6 2.6 972.3 2.6 972.3 0"/><polygon class="cls-1" points="876.3 0 830.9 0 830.9 2.6 828.3 2.6 828.3 0 793.1 0 793.1 48.5 780.3 48.5 780.3 64 782.9 64 782.9 66.6 780.3 66.6 780.3 83.2 795.7 83.2 795.7 80.4 814.9 80.4 814.9 83.2 894.7 83.2 894.7 34.4 878.9 34.4 878.9 34.6 876.3 34.6 876.3 31.9 878.7 31.9 878.7 2.6 876.3 2.6 876.3 0"/><polygon class="cls-1" points="763.5 0 734.9 0 734.9 2.6 732.3 2.6 732.3 0 686.9 0 686.9 2.6 684.3 2.6 684.3 32 686.9 32 686.9 34.6 684.3 34.6 684.3 64 686.9 64 686.9 66.6 684.3 66.6 684.3 96 686.9 96 686.9 97.6 732.3 97.6 732.3 96 734.9 96 734.9 97.6 767.5 97.6 767.5 84.8 764.7 84.8 764.7 65.5 767.5 65.5 767.5 34.4 763.4 34.4 763.5 0"/><polygon class="cls-1" points="576.8 3.9 574.1 3.9 574.1 1.3 546.1 1.3 546.1 3.9 543.4 3.9 543.4 1.3 514.1 1.3 514.1 3.9 511.4 3.9 511.4 1.3 498.9 1.3 498.9 34.4 496.4 34.4 496.4 84.6 516.4 84.6 516.4 81.5 535.7 81.5 535.7 84.6 543.4 84.6 543.4 32 576.8 32 576.8 3.9"/><polygon class="cls-1" points="481.8 15.5 481.8 32 479.4 32 479.4 34.6 482.1 34.6 482.1 34.3 484.4 34.3 484.4 84.6 437.8 84.6 437.8 81.5 418.6 81.5 418.6 84.6 413.8 84.6 413.8 76.1 390.4 76.1 390.4 84.6 384.8 84.6 384.8 66.6 386.1 66.6 386.1 64 384.8 64 384.8 34.6 386.1 34.6 386.1 32 384.8 32 384.8 3.9 386.1 3.9 386.1 1.3 415.4 1.3 415.4 3.9 418.1 3.9 418.1 1.3 447.4 1.3 447.4 30.9 473.8 30.9 473.8 15.5 481.8 15.5"/><polygon class="cls-1" points="334.6 1.3 322.1 1.3 322.1 3.9 319.4 3.9 319.4 1.3 290.1 1.3 290.1 3.9 287.4 3.9 287.4 1.3 258.1 1.3 258.1 3.9 255.4 3.9 255.4 1.3 240 1.3 240 50.6 256.5 50.6 256.5 63.9 258.1 63.9 258.1 66.6 256.4 66.6 256.4 84.6 276.2 84.6 276.2 81.5 295.4 81.5 295.4 31.9 334.6 31.9 334.6 1.3"/><polygon class="cls-1" points="255.4 66.6 255.4 64.6 226.1 64.6 226.1 66.6 223.4 66.6 223.4 64.6 220.7 64.6 220.7 84.6 238.4 84.6 238.4 79.3 241.6 79.3 241.6 84.6 255.9 84.6 255.9 66.6 255.4 66.6"/><polygon class="cls-1" points="206.6 1.3 194.1 1.3 194.1 3.9 191.4 3.9 191.4 1.3 162.1 1.3 162.1 3.9 159.4 3.9 159.4 1.3 130.1 1.3 130.1 3.9 129.4 3.9 129.4 32 130.1 32 130.1 34.6 129.4 34.6 129.4 64 130.1 64 130.1 66.6 129.4 66.6 129.4 84.6 164.3 84.6 164.3 81.4 183.6 81.4 183.6 78.3 201.2 78.3 201.2 73 206.6 73 206.6 1.3"/><polygon class="cls-1" points="128.7 3.9 127.4 3.9 127.4 1.3 98.1 1.3 98.1 3.9 95.4 3.9 95.4 1.3 66.1 1.3 66.1 3.9 64.7 3.9 64.7 32 66.1 32 66.1 34.6 64.7 34.6 64.7 64 66.1 64 66.1 66.6 64.7 66.6 64.7 84.6 69.8 84.6 69.8 79.3 92.7 79.3 92.7 84.6 106.2 84.6 106.2 81.5 125.4 81.5 125.4 84.6 128.7 84.6 128.7 66.6 127.4 66.6 127.4 64 128.7 64 128.7 34.6 127.5 34.6 127.5 31.9 128.7 31.9 128.7 3.9"/><polygon class="cls-1" points="63.4 3.9 63.4 1.3 34.1 1.3 34.1 3.9 31.4 3.9 31.4 1.3 19.1 1.3 19.1 34.4 2.1 34.4 2.1 34.6 0 34.6 0 64 2.1 64 2.1 66.6 0 66.6 0 84.6 38.7 84.6 38.7 81.5 58 81.5 58 84.6 64.1 84.6 64.1 66.6 63.4 66.6 63.4 64 64.1 64 64.1 34.6 63.4 34.6 63.4 32 64.1 32 64.1 3.9 63.4 3.9"/><polygon class="cls-1" points="226.1 160 226.1 130.6 223.4 130.6 223.4 128 226.1 128 226.1 98.6 223.4 98.6 223.4 96.6 217.9 96.6 217.9 99.7 198.6 99.7 198.6 96.6 194.1 96.6 194.1 98.6 191.3 98.6 191.3 96.6 162.1 96.6 162.1 98.6 161.2 98.6 161.2 128 162.1 128 162.1 130.6 159.4 130.6 159.4 129.7 130.1 129.7 130.1 130.6 129.4 130.6 129.4 160 130.1 160 130.1 162.6 159.4 162.6 159.4 159.9 162.1 159.9 162.1 161.9 191.4 161.9 191.4 160 194.1 160 194.1 162 223.4 162 223.4 160 226.1 160"/><path class="cls-1" d="M187.9,97.3v2h.8v29.3h-.8v1H158.6v-1h-2.7v2.7h1.3v29.3h-1.3v2.7s-29.3.2-29.3,0v-2.7h-1.3V131.3a5.65,5.65,0,0,0,1.3,0v-2.7h-1.3V99.3h1.3v-2H156v2h2.7v-2h4.5v3.1h19.2V97.3Z" transform="translate(-28.5 -0.7)"/><polygon class="cls-1" points="95.4 96.6 95.4 98.6 96.1 98.6 96.1 128 95.4 128 95.4 130.6 96.1 130.6 96.1 160 95.4 160 95.4 162.6 66.1 162.6 66.1 160 64.7 160 64.7 130.6 70.1 130.6 70.1 96.6 73.2 96.6 73.2 99.7 92.4 99.7 92.4 96.6 95.4 96.6"/><polygon class="cls-1" points="337.5 272.6 337.5 256 322.1 256 322.1 258.6 319.4 258.6 319.4 256.6 290.1 256.6 290.1 258.6 288.8 258.6 288.8 288 290.1 288 290.1 290.6 288.8 290.6 288.8 306.5 332.2 306.5 332.2 303.5 351.4 303.5 351.4 306.5 357.5 306.5 357.5 272.6 337.5 272.6"/><path class="cls-1" d="M510.4,104.1H478.6V99.3h-2.7v1s-19.2-.1-19.2,0v-3H446.6v2h-1.1v29.3h1.1v2.7h-2.7v-1H414.6v1h-1.1v29.3h1.1v2.7h29.3v-2.7h2.7v2h29.3v-2h2.7v2h29.3v-2h2.4V131.3h-2.4v-2.7h2.4V104.1Z" transform="translate(-28.5 -0.7)"/><polygon class="cls-1" points="416.5 98.6 415.4 98.6 415.4 96.6 409.9 96.6 409.9 99.7 390.6 99.7 390.6 96.6 386.1 96.6 386.1 98.6 383.7 98.6 383.7 102 360.4 102 360.4 96.6 354.1 96.6 354.1 98.6 353 98.6 353 128 354.1 128 354.1 130.6 353 130.6 353 160 354.1 160 354.1 162.6 383.4 162.6 383.4 159.9 384.1 159.9 384.1 130.6 383.4 130.6 383.4 128 386.1 128 386.1 128.7 415.4 128.7 415.4 128 416.5 128 416.5 98.6"/><polygon class="cls-1" points="352.1 98.6 351.4 98.6 351.4 96.6 341.3 96.6 341.3 99.7 322.1 99.7 322.1 98.6 319.4 98.6 319.4 96.6 302.5 96.6 302.5 110.9 305.8 110.9 305.8 127.5 322.1 127.5 322.1 162.6 351.4 162.6 351.4 160 352.1 160 352.1 130.6 351.4 130.6 351.4 128 352.1 128 352.1 98.6"/><polygon class="cls-1" points="830.9 256 830.9 258.6 780.3 258.6 780.3 288 782.9 288 782.9 290.6 780.3 290.6 780.3 320 782.9 320 782.9 322.6 828.3 322.6 828.3 320 830.9 320 830.9 322.6 845.1 322.6 845.1 319.7 864.4 319.7 864.4 322.6 876.3 322.6 876.3 320 877.3 320 877.3 290.6 876.3 290.6 876.3 288 877.2 288 877.2 258.6 876.3 258.6 876.3 256 830.9 256"/><polygon class="cls-1" points="974.3 258.6 924.3 258.6 924.3 256 878.9 256 878.9 258.6 877.9 258.6 877.9 288 878.9 288 878.9 290.6 877.9 290.6 877.9 320 878.9 320 878.9 322.6 891.5 322.6 891.5 319.7 910.7 319.7 910.7 322.6 924.3 322.6 924.3 320 926.9 320 926.9 322.6 972.3 322.6 972.3 320 974.3 320 974.3 290.7 972.3 290.7 972.3 287.9 974.3 287.9 974.3 258.6"/><polygon class="cls-1" points="972.3 96 959.5 96 959.5 98.7 940.1 98.7 940.1 96 926.9 96 926.9 98.6 924.3 98.6 924.3 96 878.9 96 878.9 98.6 877.9 98.6 877.9 128 878.9 128 878.9 130.6 877.9 130.6 877.9 160 878.9 160 878.9 162.6 924.3 162.6 924.3 160 974.9 160 974.9 130.6 972.3 130.6 972.3 127.9 974.9 127.9 974.9 98.6 972.2 98.6 972.3 96"/><polygon class="cls-1" points="876.3 96 863.5 96 863.5 98.7 844.2 98.7 844.2 96 830.9 96 830.9 98.6 828.3 98.6 828.3 96 808.5 96 808.5 102.9 780.3 102.9 780.3 128 782.9 128 782.9 130.6 780.3 130.6 780.3 160 830.9 160 830.9 162.6 876.3 162.6 876.3 160 877.3 160 877.3 130.6 876.2 130.6 876.2 128 877.3 128 877.3 98.6 876.3 98.6 876.3 96"/></svg>