<svg id="Layer_1" data-name="Layer 1" xmlns="http://www.w3.org/2000/svg" viewBox="0 0 80 49"><defs><style>.cls-1{fill:orange;}</style></defs><title>plans</title><path class="cls-1" d="M8.1,49a8.1,8.1,0,1,1,8.1-8.1A8.07,8.07,0,0,1,8.1,49Zm0-14a5.9,5.9,0,0,0,0,11.8A6,6,0,0,0,14,40.9,5.85,5.85,0,0,0,8.1,35Z"/><path class="cls-1" d="M71.9,49A8.1,8.1,0,1,1,80,40.9,8.07,8.07,0,0,1,71.9,49Zm0-14a5.9,5.9,0,1,0,0,11.8,6,6,0,0,0,5.9-5.9A5.91,5.91,0,0,0,71.9,35Z"/><path class="cls-1" d="M21,23.9a1.09,1.09,0,0,1,0,1.5,1.22,1.22,0,0,1-1.6,0l-3.9-3.9-3.9,3.9a1.22,1.22,0,0,1-1.6,0,1.09,1.09,0,0,1,0-1.5L13.9,20,10,16.1a1.06,1.06,0,0,1,1.5-1.5l3.9,3.9,3.9-3.9a1.06,1.06,0,0,1,1.5,1.5L17.1,20Z"/><path class="cls-1" d="M45.6,23.9a1.09,1.09,0,0,1,0,1.5,1.22,1.22,0,0,1-1.6,0l-3.9-3.9-3.9,3.9a1.22,1.22,0,0,1-1.6,0,1.09,1.09,0,0,1,0-1.5L38.5,20l-3.9-3.9a1.06,1.06,0,0,1,1.5-1.5L40,18.5l3.9-3.9a1.06,1.06,0,0,1,1.5,1.5L41.7,20Z"/><path class="cls-1" d="M63.1.4,51.8,0a1.11,1.11,0,0,0-1.1,1.1l-.4,11.3a1,1,0,0,0,1.1,1.1h0a1.11,1.11,0,0,0,1.1-1.1l.3-8.7,1.8,1.9a20.35,20.35,0,0,1-1,28.7A19.64,19.64,0,0,1,40,39.7a8.09,8.09,0,1,0-8,9.2,8.09,8.09,0,0,0,8-7,23,23,0,0,0,15.1-6A22.46,22.46,0,0,0,56.2,4.1L54.4,2.2l8.6.4a1,1,0,0,0,1.1-1C64.1.9,63.7.4,63.1.4ZM37.8,40.9A5.9,5.9,0,1,1,31.9,35a5.85,5.85,0,0,1,5.9,5.9Z"/></svg>