<svg id="_1_floor" data-name="1 floor" xmlns="http://www.w3.org/2000/svg" viewBox="0 0 233.7 272.9"><defs><style>.cls-1{fill:#eaeaea;}.cls-2,.cls-3,.cls-4,.cls-5{fill:none;stroke:#626263;}.cls-2,.cls-5{stroke-miterlimit:10;}.cls-2,.cls-3,.cls-4{stroke-width:0.42px;}.cls-3,.cls-4{stroke-linecap:round;stroke-linejoin:round;}.cls-4{stroke-dasharray:1605.11 120.38 80.26 120.38;}.cls-5{stroke-width:0.7px;}</style></defs><title>plan_pop_up</title><path class="cls-1" d="M229.8,134.7V8.3H186.3v7.3H179V8.3H98.6v7.3H91.3V8.3H14.6v7.3H7.2V92.3h7.3v7.3H7.2v168H221.1V214.7h8.6V171.2H181.8V134.7h48ZM14.6,187.3H7.2V180h7.3v7.3Z" transform="translate(-1.65 -1.55)"/><polygon class="cls-2" points="5.55 90.75 12.95 90.75 12.95 98.05 5.55 98.05 5.55 178.45 12.95 178.45 12.95 185.75 5.55 185.75 5.55 266.15 219.55 266.15 219.55 213.15 228.15 213.15 228.15 169.65 180.15 169.65 180.15 133.15 228.15 133.15 228.15 6.75 184.55 6.75 184.55 14.05 177.25 14.05 177.25 6.75 96.95 6.75 96.95 14.05 89.65 14.05 89.65 6.75 12.95 6.75 12.95 14.05 5.55 14.05 5.55 90.75"/><rect class="cls-3" x="113.15" y="132.75" width="7.3" height="7.3"/><rect class="cls-3" x="113.15" y="132.75" width="7.3" height="7.3"/><rect class="cls-3" x="113.15" y="132.75" width="7.3" height="7.3"/><rect class="cls-3" x="113.15" y="132.75" width="7.3" height="7.3"/><line class="cls-4" x1="116.85" y1="131.35" x2="116.85" y2="141.55"/><line class="cls-4" x1="111.75" y1="136.45" x2="121.95" y2="136.45"/><line class="cls-4" x1="116.85" y1="131.35" x2="116.85" y2="141.55"/><line class="cls-4" x1="111.75" y1="136.45" x2="121.95" y2="136.45"/><line class="cls-4" x1="116.85" y1="131.35" x2="116.85" y2="141.55"/><line class="cls-4" x1="111.75" y1="136.45" x2="121.95" y2="136.45"/><line class="cls-4" x1="116.85" y1="131.35" x2="116.85" y2="141.55"/><line class="cls-4" x1="111.75" y1="136.45" x2="121.95" y2="136.45"/><rect class="cls-3" x="113.15" y="132.75" width="7.3" height="7.3"/><rect class="cls-3" x="113.15" y="132.75" width="7.3" height="7.3"/><rect class="cls-3" x="113.15" y="132.75" width="7.3" height="7.3"/><rect class="cls-3" x="113.15" y="132.75" width="7.3" height="7.3"/><polygon class="cls-5" points="0.35 0.35 233.35 0.35 233.35 220.05 228.75 220.05 228.75 272.55 0.35 272.55 0.35 0.35"/></svg>