<svg id="Layer_1" data-name="Layer 1" xmlns="http://www.w3.org/2000/svg" viewBox="0 0 24 54"><defs><style>.cls-1{fill:orange;}</style></defs><title>scroll</title><path class="cls-1" d="M18.3,46.4a1.39,1.39,0,0,0-1.9,0L12,50.8,7.6,46.4a1.34,1.34,0,1,0-1.9,1.9L11,53.6a1.22,1.22,0,0,0,.9.4,1.09,1.09,0,0,0,.9-.4l5.3-5.3A1.25,1.25,0,0,0,18.3,46.4Z"/><path class="cls-1" d="M24,24V12A12,12,0,0,0,0,12V24a12,12,0,0,0,24,0ZM12,33.3A9.35,9.35,0,0,1,2.7,24V12a9.3,9.3,0,1,1,18.6,0V24A9.35,9.35,0,0,1,12,33.3Z"/><path class="cls-1" d="M12,7.3a1.32,1.32,0,0,0-1.3,1.3v4a1.3,1.3,0,1,0,2.6,0v-4A1.32,1.32,0,0,0,12,7.3Z"/></svg>